<?xml version="1.0" encoding="UTF-8" standalone="no"?>
<!-- Created with Inkscape (http://www.inkscape.org/) -->

<svg
   version="1.1"
   id="svg2"
   width="666.66669"
   height="666.66669"
   viewBox="0 0 666.66669 666.66669"
   sodipodi:docname="4894123.eps"
   xmlns:inkscape="http://www.inkscape.org/namespaces/inkscape"
   xmlns:sodipodi="http://sodipodi.sourceforge.net/DTD/sodipodi-0.dtd"
   xmlns="http://www.w3.org/2000/svg"
   xmlns:svg="http://www.w3.org/2000/svg">
  <defs
     id="defs6" />
  <sodipodi:namedview
     id="namedview4"
     pagecolor="#ffffff"
     bordercolor="#000000"
     borderopacity="0.25"
     inkscape:showpageshadow="2"
     inkscape:pageopacity="0.0"
     inkscape:pagecheckerboard="0"
     inkscape:deskcolor="#d1d1d1" />
  <g
     id="g8"
     inkscape:groupmode="layer"
     inkscape:label="ink_ext_XXXXXX"
     transform="matrix(1.3333333,0,0,-1.3333333,0,666.66667)">
    <g
       id="g10"
       transform="scale(0.1)">
      <path
         d="M 0,0 H 5000 V 5000 H 0 Z"
         style="fill:#ffffff;fill-opacity:0;fill-rule:nonzero;stroke:none"
         id="path12" />
      <path
         d="M 4177.01,2612.78 C 5109.29,2074.53 5114.2,1201.88 4187.98,663.621 3261.88,125.43 1755.23,125.359 822.949,663.609 -109.324,1201.86 -114.137,2074.57 811.977,2612.76 c 926.213,538.26 2432.763,538.27 3365.033,0.02"
         style="fill:#b1e6f3;fill-opacity:1;fill-rule:nonzero;stroke:none"
         id="path14" />
      <path
         d="m 2391.55,4304.19 65.25,37.92 c 0.64,-4.28 1.26,-8.56 2.02,-12.85 l -67.27,-25.07"
         style="fill:#b1c3c6;fill-opacity:1;fill-rule:nonzero;stroke:none"
         id="path16" />
      <path
         d="m 2896.94,3912.42 -5.65,-34.42 -106.92,-62.13 14.81,90.15 c 36.53,-8.16 69.67,-5.62 97.76,6.4"
         style="fill:#b1c3c6;fill-opacity:1;fill-rule:nonzero;stroke:none"
         id="path18" />
      <path
         d="m 2599.38,4335.02 c 0.34,2.8 0.71,5.56 1.21,8.2 0.28,1.51 0.63,2.95 0.96,4.41 0.55,2.35 1.13,4.66 1.79,6.87 0.44,1.43 0.9,2.82 1.39,4.19 0.74,2.1 1.54,4.13 2.39,6.09 0.56,1.27 1.11,2.54 1.72,3.75 0.96,1.94 2.02,3.78 3.1,5.58 0.63,1.04 1.23,2.12 1.91,3.12 1.31,1.95 2.74,3.74 4.2,5.5 l 1.65,2.05 c 2.09,2.31 4.3,4.44 6.66,6.36 1.14,0.94 2.41,1.68 3.62,2.53 19.33,13.53 46.01,14.96 76.08,1.89 -0.54,-5.01 -0.89,-10.2 -0.91,-15.68 -0.01,-4.47 0.2,-9.01 0.54,-13.58 0.11,-1.43 0.29,-2.89 0.42,-4.33 0.3,-2.93 0.65,-5.88 1.08,-8.84 0.46,-3.24 1.05,-6.51 1.68,-9.77 0.42,-2.25 0.81,-4.48 1.31,-6.73 0.46,-2.08 1,-4.17 1.53,-6.25 0.73,-2.92 1.48,-5.85 2.34,-8.78 0.49,-1.68 1.02,-3.36 1.55,-5.04 1.02,-3.29 2.12,-6.58 3.3,-9.85 0.48,-1.34 0.93,-2.68 1.43,-4.01 1.7,-4.52 3.49,-9.03 5.44,-13.5 l 0.69,-1.5 c 1.76,-4.01 3.65,-7.99 5.61,-11.93 0.62,-1.23 1.24,-2.46 1.87,-3.68 1.91,-3.71 3.89,-7.39 5.95,-11.02 l 1.21,-2.16 c 2.46,-4.26 5.05,-8.45 7.73,-12.57 0.77,-1.19 1.57,-2.35 2.36,-3.53 1.98,-2.97 4.02,-5.9 6.1,-8.78 1.12,-1.55 2.25,-3.09 3.4,-4.61 1.81,-2.41 3.67,-4.76 5.54,-7.09 1.57,-1.95 3.15,-3.9 4.77,-5.79 1.53,-1.82 3.11,-3.57 4.68,-5.33 2.67,-2.97 5.39,-5.86 8.16,-8.67 1.73,-1.77 3.45,-3.54 5.21,-5.23 1.37,-1.3 2.76,-2.58 4.14,-3.85 2.29,-2.08 4.6,-4.1 6.94,-6.06 1.39,-1.17 2.78,-2.35 4.19,-3.47 2.55,-2.03 5.13,-3.95 7.73,-5.82 1.23,-0.89 2.44,-1.82 3.68,-2.68 3.85,-2.64 7.75,-5.15 11.7,-7.43 3.8,-2.2 7.55,-4.09 11.26,-5.84 0.97,-0.46 1.94,-0.9 2.89,-1.32 l 1.17,-0.47 c -3.33,-30.61 -16.16,-52.38 -35.3,-63.3 l -0.04,-0.02 c -2.51,-1.42 -5.15,-2.61 -7.86,-3.66 l -1.81,-0.64 -0.41,-0.14 c -2.18,-0.75 -4.43,-1.38 -6.73,-1.9 l -1.78,-0.41 -0.25,-0.05 c -2.92,-0.55 -5.92,-0.92 -9.01,-1.09 l -1.59,-0.01 -0.59,-0.01 c -2.44,-0.06 -4.93,0 -7.46,0.18 -1.16,0.09 -2.34,0.22 -3.52,0.35 l -0.23,0.03 c -2.1,0.24 -4.23,0.59 -6.38,1 -1.63,0.3 -3.27,0.65 -4.93,1.05 l -0.13,0.03 c -3.01,0.73 -6.03,1.52 -9.12,2.57 l -0.35,0.1 -0.38,0.15 c -3.37,1.16 -6.79,2.58 -10.25,4.11 -0.96,0.43 -1.91,0.86 -2.86,1.31 -3.71,1.76 -7.45,3.65 -11.25,5.84 -3.96,2.28 -7.85,4.79 -11.71,7.44 -1.24,0.85 -2.45,1.78 -3.67,2.67 -2.61,1.88 -5.19,3.8 -7.74,5.83 -1.41,1.12 -2.8,2.29 -4.19,3.47 -1.32,1.1 -2.61,2.27 -3.91,3.42 -1.01,0.88 -2.03,1.73 -3.03,2.64 -1.39,1.26 -2.76,2.54 -4.13,3.85 -1.77,1.69 -3.49,3.45 -5.22,5.21 l -0.01,0.01 c -2.76,2.81 -5.47,5.71 -8.14,8.68 v 0.01 c -1.58,1.75 -3.15,3.49 -4.69,5.3 l -0.01,0.01 c -1.61,1.9 -3.18,3.84 -4.75,5.8 h -0.01 c -1.88,2.34 -3.73,4.68 -5.54,7.09 -1.15,1.52 -2.29,3.06 -3.41,4.61 -2.08,2.88 -4.11,5.81 -6.09,8.78 -0.78,1.18 -1.59,2.33 -2.37,3.52 v 0.01 c -2.66,4.12 -5.25,8.3 -7.71,12.56 l -1.22,2.19 -0.01,0.02 c -2.06,3.61 -4.03,7.27 -5.94,10.97 v 0.01 c -0.63,1.22 -1.26,2.44 -1.86,3.67 l -0.01,0.01 c -1.96,3.94 -3.84,7.92 -5.61,11.92 l -0.01,0.01 -0.68,1.49 c -1.95,4.46 -3.73,8.96 -5.43,13.48 v 0.01 c -0.51,1.34 -0.97,2.69 -1.45,4.04 v 0 c -1.17,3.27 -2.26,6.54 -3.3,9.82 v 0.02 c -0.53,1.68 -1.05,3.36 -1.54,5.04 v 0 c -0.85,2.93 -1.6,5.85 -2.34,8.78 -0.52,2.08 -1.07,4.16 -1.53,6.24 -0.5,2.25 -0.89,4.48 -1.32,6.72 -0.62,3.28 -1.21,6.54 -1.68,9.79 -0.42,2.95 -0.77,5.88 -1.06,8.8 v 0.01 c -0.14,1.46 -0.31,2.92 -0.43,4.37 -0.34,4.56 -0.56,9.1 -0.54,13.57 0.01,4.57 0.25,8.96 0.64,13.22 0.12,1.39 0.34,2.7 0.51,4.05"
         style="fill:#b1c3c6;fill-opacity:1;fill-rule:nonzero;stroke:none"
         id="path20" />
      <path
         d="m 2457.17,4660.71 106.92,62.13 81.58,-82.03 -106.91,-62.13 -81.59,82.03"
         style="fill:#c6d7d9;fill-opacity:1;fill-rule:nonzero;stroke:none"
         id="path22" />
      <path
         d="m 2626.23,4590.7 c -2.91,0.4 -5.79,0.73 -8.64,0.98 -2.3,0.21 -4.57,0.38 -6.84,0.5 -1.68,0.09 -3.32,0.13 -4.98,0.18 -3.92,0.1 -7.79,0.06 -11.6,-0.11 h -0.01 c -1.59,-0.07 -3.2,-0.11 -4.78,-0.22 -4.23,-0.32 -8.38,-0.82 -12.47,-1.47 h -0.02 l -2.28,-0.31 c -4.71,-0.82 -9.3,-1.9 -13.79,-3.18 l -2.35,-0.76 c -3.67,-1.11 -7.27,-2.35 -10.78,-3.77 h -0.01 c -3.02,-1.21 -6.02,-2.44 -8.92,-3.86 l 106.91,62.13 c 2.04,1 4.12,1.93 6.22,2.83 l -9.18,-55.87 c -5.58,1.25 -11.06,2.18 -16.48,2.93"
         style="fill:#b1c3c6;fill-opacity:1;fill-rule:nonzero;stroke:none"
         id="path24" />
      <path
         d="m 2982.74,4026.77 106.93,62.14 66.83,-102.51 -106.91,-62.13 -66.85,102.5"
         style="fill:#b1c3c6;fill-opacity:1;fill-rule:nonzero;stroke:none"
         id="path26" />
      <path
         d="m 3156.5,3986.4 -64.86,-91.19 -106.92,-62.13 64.87,91.19 106.91,62.13"
         style="fill:#c6d7d9;fill-opacity:1;fill-rule:nonzero;stroke:none"
         id="path28" />
      <path
         d="m 2987.88,4057.71 c 1.18,10.83 1.81,22.17 1.85,34 l -0.01,0.06 c 0.02,7.59 -0.29,15.28 -0.75,23.01 v 0.02 c -0.12,2.07 -0.28,4.15 -0.42,6.23 l -0.01,0.01 c -1.07,14.31 -2.84,28.78 -5.39,43.35 l -0.01,0.05 -0.01,0.04 67.21,25.11 -64.14,165.68 106.92,62.14 64.15,-165.68 -65.26,-37.92 c 0.33,-2.25 0.74,-4.51 1.04,-6.76 l 0.15,-1.02 c 0.12,-0.92 0.16,-1.83 0.28,-2.74 0.83,-6.74 1.47,-13.44 1.98,-20.11 0.16,-2.09 0.3,-4.18 0.43,-6.27 0.46,-7.75 0.77,-15.45 0.75,-23.06 -0.07,-23.67 -2.52,-45.36 -6.97,-64.94 l -106.93,-62.14 c 2.23,9.79 3.96,20.11 5.14,30.94"
         style="fill:#c6d7d9;fill-opacity:1;fill-rule:nonzero;stroke:none"
         id="path30" />
      <path
         d="m 2894.79,4382.91 v 0 c -4.52,7.02 -9.14,13.95 -13.9,20.76 l -0.01,0.02 c -0.65,0.9 -1.31,1.78 -1.95,2.69 l -0.02,0.03 c -4.84,6.83 -9.82,13.53 -14.9,20.13 -1.09,1.43 -2.2,2.87 -3.32,4.29 v 0.01 c -6.12,7.81 -12.37,15.48 -18.81,22.91 -1.91,2.22 -3.87,4.36 -5.81,6.53 l -0.06,0.08 c -2.63,2.94 -5.25,5.89 -7.91,8.77 l -0.01,0.01 c -2.11,2.25 -4.26,4.45 -6.39,6.66 l -0.05,0.05 c -2.67,2.77 -5.32,5.55 -8.03,8.25 -4.22,4.2 -8.45,8.35 -12.77,12.37 l 106.91,62.14 c 3.76,-3.51 7.49,-7.09 11.18,-10.73 l 1.61,-1.65 c 2.71,-2.71 5.38,-5.5 8.04,-8.28 2.15,-2.22 4.31,-4.42 6.42,-6.69 2.7,-2.9 5.33,-5.88 7.99,-8.85 1.69,-1.9 3.42,-3.73 5.1,-5.66 l 0.7,-0.85 c 6.43,-7.44 12.69,-15.11 18.82,-22.94 l 1.97,-2.41 c 0.76,-0.98 1.46,-2.01 2.22,-3 4.78,-6.25 9.47,-12.59 14.04,-19.04 l 1.54,-2.09 0.4,-0.6 c 4.78,-6.82 9.4,-13.75 13.92,-20.78 l 1.16,-1.74 c 2.88,-4.5 5.7,-9.03 8.47,-13.61 l -106.93,-62.13 c -3.12,5.17 -6.35,10.27 -9.62,15.35"
         style="fill:#c6d7d9;fill-opacity:1;fill-rule:nonzero;stroke:none"
         id="path32" />
      <path
         d="m 2786.6,4603.39 106.92,62.14 14.24,-106.92 -106.91,-62.14 -14.25,106.92"
         style="fill:#b1c3c6;fill-opacity:1;fill-rule:nonzero;stroke:none"
         id="path34" />
      <path
         d="m 2657.52,4677.91 106.92,62.14 129.08,-74.52 -106.92,-62.14 -129.08,74.52"
         style="fill:#c6d7d9;fill-opacity:1;fill-rule:nonzero;stroke:none"
         id="path36" />
      <path
         d="m 2904.41,4367.56 106.93,62.13 81.78,-12.28 -106.92,-62.14 -81.79,12.29"
         style="fill:#b1c3c6;fill-opacity:1;fill-rule:nonzero;stroke:none"
         id="path38" />
      <path
         d="m 2598.23,4317.75 c 0.01,4.57 0.25,8.96 0.64,13.22 0.12,1.39 0.34,2.7 0.51,4.05 0.34,2.8 0.71,5.56 1.21,8.2 0.28,1.51 0.63,2.95 0.96,4.41 0.55,2.35 1.13,4.66 1.79,6.87 0.44,1.43 0.9,2.81 1.39,4.19 0.74,2.1 1.54,4.13 2.39,6.09 0.56,1.27 1.11,2.54 1.72,3.75 0.96,1.94 2.02,3.78 3.1,5.58 0.63,1.04 1.23,2.12 1.91,3.12 1.31,1.95 2.74,3.74 4.2,5.49 l 1.65,2.06 c 2.09,2.31 4.3,4.44 6.66,6.36 1.14,0.94 2.41,1.68 3.62,2.53 19.33,13.53 46.01,14.96 76.08,1.88 5.01,-2.17 10.08,-4.6 15.26,-7.59 67.79,-39.15 122.57,-134.01 122.34,-211.92 -0.02,-5.48 -0.37,-10.66 -0.91,-15.67 -3.33,-30.61 -16.16,-52.38 -35.3,-63.3 l -0.04,-0.02 c -2.51,-1.42 -5.15,-2.61 -7.86,-3.66 l -2.22,-0.78 c -2.18,-0.75 -4.43,-1.38 -6.73,-1.9 l -2.03,-0.46 c -2.92,-0.55 -5.92,-0.92 -9.01,-1.09 l -2.18,-0.02 c -2.44,-0.06 -4.93,0 -7.46,0.18 -1.24,0.09 -2.49,0.23 -3.75,0.38 -2.1,0.24 -4.23,0.59 -6.38,1 -1.67,0.31 -3.35,0.66 -5.06,1.08 -3.01,0.73 -6.03,1.52 -9.12,2.57 l -0.73,0.25 c -3.37,1.16 -6.79,2.58 -10.25,4.11 -4.64,2.08 -9.34,4.4 -14.11,7.16 -10.82,6.24 -21.24,14.03 -31.22,22.82 -1.01,0.88 -2.03,1.73 -3.03,2.64 -1.39,1.26 -2.76,2.54 -4.13,3.85 -1.77,1.69 -3.49,3.45 -5.22,5.21 -2.77,2.82 -5.49,5.72 -8.15,8.7 -1.58,1.75 -3.16,3.5 -4.69,5.3 -1.62,1.9 -3.19,3.85 -4.77,5.81 -1.88,2.34 -3.73,4.68 -5.54,7.09 -1.15,1.52 -2.29,3.06 -3.41,4.61 -2.08,2.88 -4.11,5.81 -6.09,8.78 -0.78,1.18 -1.59,2.34 -2.37,3.53 -2.66,4.12 -5.25,8.3 -7.71,12.56 l -1.23,2.21 c -2.06,3.61 -4.03,7.27 -5.94,10.97 -0.63,1.23 -1.26,2.45 -1.87,3.69 -1.96,3.94 -3.84,7.92 -5.61,11.92 l -0.69,1.5 c -1.95,4.46 -3.73,8.96 -5.43,13.48 -0.51,1.35 -0.97,2.7 -1.45,4.05 -1.17,3.27 -2.26,6.54 -3.3,9.82 -0.53,1.69 -1.04,3.38 -1.54,5.06 -0.85,2.93 -1.6,5.85 -2.34,8.78 -0.52,2.08 -1.07,4.16 -1.53,6.24 -0.5,2.25 -0.89,4.48 -1.32,6.72 -0.62,3.28 -1.21,6.54 -1.68,9.79 -0.42,2.95 -0.77,5.88 -1.06,8.8 -0.59,6.05 -0.99,12.06 -0.97,17.95 m -206.68,-13.56 64.14,-165.68 81.78,-12.28 c 29.16,-48.2 64.41,-92.41 103.57,-128.92 l 14.25,-106.92 129.08,-74.52 14.81,90.15 c 36.53,-8.16 69.67,-5.62 97.76,6.4 2.07,0.89 4.18,1.7 6.19,2.69 l 81.59,-82.03 64.87,91.19 -66.85,102.5 c 2.23,9.79 3.96,20.11 5.14,30.94 1.18,10.83 1.81,22.17 1.84,34 v 0.06 c 0.02,7.59 -0.29,15.28 -0.75,23.01 -0.12,2.08 -0.28,4.17 -0.43,6.26 -1.07,14.31 -2.84,28.78 -5.39,43.35 l -0.02,0.09 67.21,25.11 -64.14,165.68 -81.79,12.29 c -3.12,5.17 -6.35,10.28 -9.63,15.35 -4.51,7.02 -9.13,13.95 -13.89,20.76 -0.66,0.92 -1.33,1.82 -1.98,2.74 -4.84,6.83 -9.82,13.53 -14.9,20.13 -1.1,1.44 -2.2,2.87 -3.32,4.3 -6.12,7.81 -12.37,15.48 -18.81,22.91 -1.93,2.24 -3.91,4.41 -5.87,6.61 -2.63,2.94 -5.25,5.89 -7.91,8.77 -2.13,2.28 -4.3,4.48 -6.45,6.72 -2.67,2.77 -5.32,5.55 -8.03,8.25 -4.21,4.2 -8.45,8.35 -12.77,12.37 l -14.25,106.92 -129.08,74.52 -5.63,-34.27 -9.18,-55.87 c -5.58,1.25 -11.06,2.18 -16.48,2.93 -2.91,0.41 -5.78,0.71 -8.64,0.98 -2.3,0.2 -4.57,0.38 -6.84,0.5 -1.67,0.09 -3.32,0.13 -4.98,0.17 -3.92,0.11 -7.79,0.07 -11.6,-0.1 -1.6,-0.07 -3.21,-0.11 -4.79,-0.22 -4.23,-0.32 -8.38,-0.82 -12.47,-1.47 l -2.3,-0.31 c -4.71,-0.82 -9.3,-1.9 -13.79,-3.17 l -2.35,-0.77 c -3.67,-1.11 -7.27,-2.35 -10.78,-3.77 -3.03,-1.2 -6.03,-2.44 -8.93,-3.86 l -81.59,82.03 -64.87,-91.19 66.91,-102.55 c -4.52,-19.53 -6.97,-41.23 -7.04,-64.9 -0.06,-19.55 1.6,-39.65 4.63,-59.96 0.64,-4.28 1.26,-8.56 2.02,-12.85 l -67.27,-25.07"
         style="fill:#dfeced;fill-opacity:1;fill-rule:nonzero;stroke:none"
         id="path40" />
      <path
         d="m 1947.04,4393.37 40.16,23.34 c 0.39,-2.63 0.77,-5.26 1.24,-7.91 l -41.4,-15.43"
         style="fill:#b1c3c6;fill-opacity:1;fill-rule:nonzero;stroke:none"
         id="path42" />
      <path
         d="m 2258.11,4152.23 -3.48,-21.18 -65.81,-38.24 9.11,55.48 c 22.49,-5.02 42.89,-3.45 60.18,3.94"
         style="fill:#b1c3c6;fill-opacity:1;fill-rule:nonzero;stroke:none"
         id="path44" />
      <path
         d="m 2074.96,4412.35 c 0.21,1.72 0.43,3.42 0.74,5.05 0.17,0.92 0.39,1.81 0.6,2.71 0.33,1.44 0.69,2.86 1.1,4.23 l 0.85,2.58 c 0.46,1.29 0.95,2.54 1.48,3.74 l 1.05,2.31 c 0.59,1.2 1.24,2.33 1.91,3.44 l 1.17,1.91 c 0.81,1.21 1.69,2.32 2.59,3.39 l 1.01,1.26 c 1.29,1.43 2.66,2.74 4.1,3.92 l 2.23,1.56 c 11.9,8.32 28.32,9.2 46.84,1.16 -0.34,-3.09 -0.56,-6.28 -0.57,-9.65 -0.01,-2.75 0.13,-5.55 0.34,-8.36 l 0.26,-2.66 c 0.17,-1.81 0.39,-3.62 0.65,-5.44 0.29,-2 0.65,-4.01 1.04,-6.02 0.26,-1.38 0.5,-2.76 0.8,-4.14 0.29,-1.28 0.62,-2.56 0.95,-3.85 0.45,-1.8 0.91,-3.6 1.44,-5.4 0.3,-1.04 0.62,-2.07 0.95,-3.11 0.63,-2.02 1.31,-4.04 2.03,-6.06 l 0.88,-2.47 c 1.05,-2.78 2.15,-5.55 3.35,-8.31 l 0.42,-0.92 c 1.09,-2.46 2.25,-4.92 3.46,-7.34 l 1.15,-2.27 c 1.18,-2.28 2.4,-4.54 3.67,-6.78 l 0.74,-1.33 c 1.52,-2.62 3.11,-5.2 4.75,-7.73 l 1.46,-2.17 c 1.22,-1.83 2.47,-3.64 3.75,-5.41 0.69,-0.96 1.39,-1.9 2.09,-2.84 1.12,-1.48 2.26,-2.92 3.42,-4.36 0.96,-1.21 1.93,-2.4 2.93,-3.57 0.94,-1.12 1.91,-2.19 2.89,-3.27 1.64,-1.83 3.31,-3.61 5.01,-5.35 1.07,-1.08 2.13,-2.17 3.22,-3.21 l 2.54,-2.37 c 1.41,-1.28 2.83,-2.52 4.27,-3.74 l 2.58,-2.13 c 1.57,-1.25 3.16,-2.43 4.76,-3.58 l 2.27,-1.65 c 2.37,-1.62 4.77,-3.17 7.2,-4.57 2.34,-1.36 4.64,-2.52 6.93,-3.6 l 1.78,-0.81 0.72,-0.29 c -2.05,-18.84 -9.96,-32.24 -21.73,-38.96 l -0.03,-0.01 c -1.54,-0.88 -3.17,-1.61 -4.84,-2.25 l -1.11,-0.4 -0.25,-0.09 c -1.34,-0.46 -2.73,-0.85 -4.14,-1.17 l -1.1,-0.25 -0.15,-0.03 c -1.8,-0.34 -3.65,-0.56 -5.55,-0.67 l -0.98,-0.01 h -0.36 c -1.5,-0.04 -3.03,0 -4.59,0.11 l -2.17,0.22 -0.14,0.01 c -1.29,0.15 -2.61,0.36 -3.93,0.62 -1,0.18 -2.01,0.39 -3.03,0.64 l -0.08,0.02 c -1.85,0.45 -3.71,0.94 -5.62,1.58 l -0.21,0.07 -0.23,0.09 c -2.07,0.71 -4.19,1.58 -6.32,2.53 l -1.75,0.81 c -2.29,1.08 -4.59,2.24 -6.93,3.59 -2.44,1.41 -4.83,2.95 -7.21,4.58 l -2.26,1.64 c -1.6,1.16 -3.19,2.34 -4.76,3.59 l -2.58,2.13 -2.41,2.11 -1.86,1.62 -2.54,2.38 c -1.09,1.04 -2.15,2.12 -3.21,3.2 v 0.01 c -1.71,1.73 -3.38,3.51 -5.02,5.34 v 0.01 c -0.97,1.07 -1.94,2.15 -2.89,3.26 -1,1.17 -1.96,2.37 -2.93,3.57 v 0.01 c -1.16,1.43 -2.3,2.88 -3.41,4.36 -0.71,0.93 -1.41,1.88 -2.1,2.84 -1.28,1.77 -2.53,3.57 -3.75,5.4 l -1.45,2.17 h -0.01 c -1.64,2.53 -3.23,5.11 -4.75,7.73 l -0.75,1.36 v 0 c -1.27,2.23 -2.49,4.48 -3.66,6.75 v 0.01 l -1.14,2.26 -0.01,0.01 c -1.21,2.42 -2.36,4.87 -3.46,7.34 v 0 l -0.42,0.92 c -1.19,2.75 -2.3,5.52 -3.34,8.3 v 0 l -0.89,2.48 v 0.01 c -0.72,2.01 -1.4,4.03 -2.03,6.04 v 0.01 c -0.33,1.03 -0.65,2.07 -0.95,3.1 -0.53,1.81 -0.98,3.61 -1.44,5.41 -0.33,1.29 -0.66,2.56 -0.94,3.84 -0.31,1.39 -0.55,2.76 -0.81,4.14 -0.39,2.02 -0.75,4.02 -1.04,6.02 -0.26,1.82 -0.48,3.62 -0.65,5.42 v 0.01 l -0.27,2.68 c -0.2,2.81 -0.34,5.6 -0.33,8.35 0.01,2.82 0.15,5.52 0.39,8.15 l 0.32,2.49"
         style="fill:#b1c3c6;fill-opacity:1;fill-rule:nonzero;stroke:none"
         id="path46" />
      <path
         d="m 1987.43,4612.81 65.81,38.24 50.21,-50.48 -65.81,-38.25 -50.21,50.49"
         style="fill:#c6d7d9;fill-opacity:1;fill-rule:nonzero;stroke:none"
         id="path48" />
      <path
         d="m 2091.49,4569.72 c -1.79,0.24 -3.57,0.45 -5.32,0.6 -1.41,0.13 -2.82,0.24 -4.21,0.32 -1.03,0.05 -2.05,0.07 -3.07,0.1 -2.41,0.06 -4.79,0.04 -7.14,-0.06 v 0 c -0.99,-0.04 -1.98,-0.07 -2.95,-0.14 -2.6,-0.2 -5.16,-0.5 -7.67,-0.9 l -0.01,-0.01 -1.41,-0.18 c -2.89,-0.51 -5.72,-1.18 -8.48,-1.96 l -1.45,-0.47 c -2.26,-0.69 -4.48,-1.45 -6.64,-2.32 h -0.01 c -1.85,-0.74 -3.7,-1.5 -5.49,-2.38 l 65.81,38.25 c 1.26,0.61 2.54,1.18 3.83,1.73 l -5.65,-34.38 c -3.43,0.76 -6.81,1.34 -10.14,1.8"
         style="fill:#b1c3c6;fill-opacity:1;fill-rule:nonzero;stroke:none"
         id="path50" />
      <path
         d="m 2310.92,4222.62 65.81,38.24 41.15,-63.09 -65.81,-38.24 -41.15,63.09"
         style="fill:#b1c3c6;fill-opacity:1;fill-rule:nonzero;stroke:none"
         id="path52" />
      <path
         d="m 2417.88,4197.77 -39.93,-56.13 -65.81,-38.24 39.93,56.13 65.81,38.24"
         style="fill:#c6d7d9;fill-opacity:1;fill-rule:nonzero;stroke:none"
         id="path54" />
      <path
         d="m 2314.08,4241.66 c 0.73,6.66 1.12,13.65 1.14,20.93 l -0.01,0.04 c 0.02,4.67 -0.17,9.4 -0.45,14.16 v 0.01 c -0.08,1.28 -0.18,2.56 -0.27,3.84 v 0 c -0.66,8.81 -1.75,17.72 -3.32,26.68 v 0.04 0.02 l 41.36,15.46 -39.48,101.97 65.81,38.25 39.48,-101.97 -40.16,-23.34 c 0.2,-1.39 0.45,-2.79 0.64,-4.16 l 0.09,-0.64 0.17,-1.68 c 0.51,-4.15 0.91,-8.28 1.22,-12.38 0.1,-1.29 0.19,-2.57 0.27,-3.85 0.28,-4.77 0.47,-9.52 0.46,-14.2 -0.04,-14.57 -1.56,-27.93 -4.3,-39.98 l -65.81,-38.24 c 1.37,6.02 2.44,12.38 3.16,19.04"
         style="fill:#c6d7d9;fill-opacity:1;fill-rule:nonzero;stroke:none"
         id="path56" />
      <path
         d="m 2256.79,4441.83 v 0 c -2.78,4.31 -5.63,8.58 -8.56,12.78 h -0.01 l -1.2,1.66 -0.01,0.02 c -2.98,4.21 -6.04,8.33 -9.16,12.39 l -2.05,2.64 v 0 c -3.77,4.81 -7.62,9.54 -11.58,14.11 v 0 c -1.18,1.36 -2.38,2.68 -3.58,4.02 l -0.04,0.04 c -1.61,1.81 -3.22,3.63 -4.87,5.4 v 0.01 c -1.3,1.39 -2.62,2.74 -3.93,4.1 l -0.03,0.04 c -1.64,1.7 -3.27,3.41 -4.94,5.07 v 0 c -2.6,2.59 -5.21,5.14 -7.87,7.61 l 65.82,38.24 c 2.31,-2.15 4.6,-4.35 6.87,-6.6 l 0.99,-1.01 c 1.67,-1.67 3.31,-3.39 4.95,-5.09 1.32,-1.38 2.65,-2.73 3.95,-4.12 1.66,-1.79 3.28,-3.63 4.92,-5.45 1.04,-1.17 2.1,-2.3 3.13,-3.48 l 0.44,-0.53 c 3.96,-4.58 7.81,-9.3 11.58,-14.12 l 1.22,-1.48 1.36,-1.85 c 2.94,-3.84 5.83,-7.75 8.65,-11.72 l 0.94,-1.29 0.25,-0.36 c 2.94,-4.2 5.78,-8.47 8.57,-12.79 l 0.71,-1.07 c 1.77,-2.77 3.51,-5.56 5.21,-8.38 l -65.81,-38.24 c -1.92,3.18 -3.91,6.32 -5.92,9.45"
         style="fill:#c6d7d9;fill-opacity:1;fill-rule:nonzero;stroke:none"
         id="path58" />
      <path
         d="m 2190.2,4577.54 65.81,38.24 8.77,-65.82 -65.82,-38.24 -8.76,65.82"
         style="fill:#b1c3c6;fill-opacity:1;fill-rule:nonzero;stroke:none"
         id="path60" />
      <path
         d="m 2110.75,4623.4 65.81,38.24 79.45,-45.86 -65.81,-38.24 -79.45,45.86"
         style="fill:#c6d7d9;fill-opacity:1;fill-rule:nonzero;stroke:none"
         id="path62" />
      <path
         d="m 2262.71,4432.38 65.81,38.24 50.34,-7.56 -65.81,-38.25 -50.34,7.57"
         style="fill:#b1c3c6;fill-opacity:1;fill-rule:nonzero;stroke:none"
         id="path64" />
      <path
         d="m 2074.25,4401.71 c 0.01,2.82 0.15,5.52 0.39,8.15 l 0.32,2.49 c 0.21,1.72 0.43,3.42 0.74,5.05 0.17,0.92 0.39,1.81 0.6,2.71 0.33,1.44 0.69,2.86 1.1,4.23 l 0.85,2.58 c 0.46,1.29 0.95,2.54 1.48,3.74 l 1.05,2.31 c 0.59,1.2 1.24,2.33 1.91,3.44 l 1.17,1.91 c 0.81,1.21 1.69,2.32 2.59,3.39 l 1.01,1.26 c 1.29,1.43 2.66,2.74 4.1,3.92 l 2.23,1.56 c 11.9,8.32 28.32,9.2 46.84,1.16 3.08,-1.34 6.2,-2.84 9.38,-4.68 41.73,-24.09 75.44,-82.48 75.31,-130.43 -0.01,-3.37 -0.23,-6.57 -0.56,-9.65 -2.05,-18.84 -9.96,-32.24 -21.73,-38.96 l -0.03,-0.01 c -1.54,-0.88 -3.17,-1.61 -4.84,-2.25 l -1.36,-0.49 c -1.34,-0.46 -2.73,-0.85 -4.14,-1.17 l -1.25,-0.28 c -1.8,-0.34 -3.65,-0.56 -5.55,-0.67 l -1.34,-0.01 c -1.5,-0.04 -3.03,0 -4.59,0.11 l -2.31,0.23 c -1.29,0.15 -2.61,0.36 -3.93,0.62 -1.03,0.19 -2.06,0.41 -3.11,0.66 -1.85,0.45 -3.71,0.94 -5.62,1.58 l -0.44,0.16 c -2.07,0.71 -4.19,1.58 -6.32,2.53 -2.85,1.28 -5.74,2.7 -8.68,4.4 -6.66,3.84 -13.07,8.64 -19.22,14.05 l -1.86,1.62 -2.54,2.38 c -1.09,1.04 -2.15,2.12 -3.21,3.2 -1.71,1.74 -3.38,3.52 -5.02,5.36 -0.97,1.07 -1.94,2.15 -2.89,3.26 -0.99,1.17 -1.96,2.37 -2.93,3.58 -1.16,1.43 -2.3,2.88 -3.41,4.36 -0.71,0.93 -1.41,1.88 -2.1,2.84 -1.28,1.77 -2.53,3.57 -3.75,5.4 l -1.46,2.17 c -1.64,2.53 -3.23,5.11 -4.75,7.73 l -0.75,1.36 c -1.27,2.23 -2.49,4.48 -3.66,6.75 l -1.15,2.28 c -1.21,2.42 -2.36,4.87 -3.46,7.34 l -0.42,0.92 c -1.19,2.75 -2.3,5.52 -3.34,8.3 l -0.89,2.49 c -0.72,2.01 -1.4,4.03 -2.03,6.04 -0.33,1.04 -0.65,2.08 -0.95,3.11 -0.53,1.81 -0.98,3.61 -1.44,5.41 -0.32,1.29 -0.66,2.56 -0.94,3.84 -0.31,1.39 -0.55,2.76 -0.81,4.14 -0.39,2.02 -0.75,4.02 -1.04,6.02 -0.26,1.82 -0.48,3.62 -0.65,5.42 -0.36,3.72 -0.61,7.42 -0.6,11.04 z m -127.21,-8.34 39.48,-101.98 50.34,-7.56 c 17.94,-29.67 39.64,-56.87 63.74,-79.34 l 8.77,-65.81 79.45,-45.87 9.11,55.48 c 22.49,-5.02 42.89,-3.45 60.18,3.94 1.27,0.56 2.57,1.05 3.81,1.66 l 50.22,-50.49 39.93,56.13 -41.15,63.09 c 1.37,6.02 2.44,12.38 3.16,19.04 0.73,6.66 1.12,13.65 1.14,20.93 l -0.01,0.04 c 0.02,4.67 -0.17,9.4 -0.45,14.16 -0.08,1.28 -0.18,2.56 -0.27,3.85 -0.66,8.81 -1.75,17.72 -3.32,26.68 v 0.06 l 41.36,15.46 -39.48,101.97 -50.34,7.57 c -1.92,3.18 -3.91,6.32 -5.92,9.45 -2.78,4.31 -5.63,8.58 -8.56,12.78 l -1.22,1.68 c -2.98,4.21 -6.04,8.33 -9.16,12.39 l -2.05,2.64 c -3.77,4.81 -7.62,9.54 -11.58,14.11 -1.19,1.38 -2.41,2.71 -3.62,4.06 -1.61,1.81 -3.22,3.63 -4.87,5.4 -1.31,1.4 -2.64,2.77 -3.96,4.15 -1.64,1.7 -3.27,3.41 -4.94,5.07 -2.6,2.59 -5.21,5.14 -7.87,7.61 l -8.76,65.82 -79.45,45.86 -3.47,-21.1 -5.65,-34.38 c -3.43,0.76 -6.81,1.34 -10.14,1.8 -1.79,0.26 -3.56,0.44 -5.32,0.6 -1.41,0.13 -2.82,0.24 -4.21,0.32 -1.03,0.05 -2.05,0.07 -3.07,0.1 -2.41,0.06 -4.79,0.04 -7.14,-0.06 -0.98,-0.04 -1.98,-0.07 -2.95,-0.14 -2.6,-0.2 -5.16,-0.5 -7.67,-0.9 l -1.42,-0.19 c -2.89,-0.51 -5.72,-1.18 -8.48,-1.96 l -1.45,-0.47 c -2.26,-0.69 -4.48,-1.45 -6.64,-2.32 -1.86,-0.74 -3.71,-1.5 -5.5,-2.38 l -50.21,50.49 -39.93,-56.13 41.18,-63.12 c -2.78,-12.02 -4.29,-25.38 -4.33,-39.94 -0.03,-12.04 0.99,-24.41 2.85,-36.91 0.39,-2.63 0.77,-5.26 1.24,-7.91 l -41.4,-15.43"
         style="fill:#dfeced;fill-opacity:1;fill-rule:nonzero;stroke:none"
         id="path66" />
      <path
         d="m 1303.67,1469.59 c -9.06,0 -18.11,2.34 -26.23,7.02 L 372.992,1998.8 c -13.965,8.06 -13.992,28.21 -0.051,36.32 l 1199.569,697.11 c 8.15,4.73 17.26,7.1 26.36,7.1 9.06,0 18.12,-2.34 26.23,-7.03 l 320.88,-185.25 -7.81,-4.69 c 2.62,1.57 5.27,3.11 7.94,4.61 v 0 c -2.67,-1.5 -5.32,-3.04 -7.94,-4.61 l -5.27,-3.18 -0.81,-0.53 c -115.39,-72.71 -183.95,-217.58 -184.49,-408.64 -0.33,-116.83 24.23,-243.26 70.79,-369.52 l -488.36,-283.8 c -8.14,-4.74 -17.25,-7.1 -26.36,-7.1 m 567.52,321.59 c -40.88,113.84 -63.87,229.86 -63.56,338.65 0.56,199.01 78.95,332.03 201.92,380.37 -76.03,-66.81 -121.57,-180.18 -122,-331.77 -0.31,-109.37 22.92,-226.01 64.21,-340.43 l -80.57,-46.82"
         style="fill:#95d6df;fill-opacity:1;fill-rule:nonzero;stroke:none"
         id="path68" />
      <path
         d="m 2498.13,2371.67 -899.29,519.2 -1194.422,-694.12 899.292,-519.2 1194.42,694.12"
         style="fill:#ffffff;fill-opacity:1;fill-rule:nonzero;stroke:none"
         id="path70" />
      <path
         d="m 1303.71,1677.55 -0.44,-155.21 1194.42,694.12 0.44,155.21 -1194.42,-694.12"
         style="fill:#cfeff2;fill-opacity:1;fill-rule:nonzero;stroke:none"
         id="path72" />
      <path
         d="m 1303.71,1677.55 -0.44,-155.21 1194.42,694.12 0.44,155.21 -1194.42,-694.12"
         style="fill:#a2e0e4;fill-opacity:1;fill-rule:nonzero;stroke:none"
         id="path74" />
      <path
         d="m 404.418,2196.75 -0.438,-155.2 899.29,-519.21 0.44,155.21 -899.292,519.2"
         style="fill:#d5f1f6;fill-opacity:1;fill-rule:nonzero;stroke:none"
         id="path76" />
      <path
         d="m 1825.45,2454.37 -28.81,-16.73 -431.89,249.34 28.81,16.75 431.89,-249.36"
         style="fill:#9baad9;fill-opacity:1;fill-rule:nonzero;stroke:none"
         id="path78" />
      <path
         d="m 1327.88,2441.85 -28.82,-16.75 -193.11,111.49 28.82,16.74 193.11,-111.48"
         style="fill:#9baad9;fill-opacity:1;fill-rule:nonzero;stroke:none"
         id="path80" />
      <path
         d="m 2285.41,2322.03 -28.73,-16.69 -776.86,448.52 28.73,16.69 776.86,-448.52"
         style="fill:#9baad9;fill-opacity:1;fill-rule:nonzero;stroke:none"
         id="path82" />
      <path
         d="m 2227.87,2288.59 -28.72,-16.69 -776.86,448.52 28.72,16.69 776.86,-448.52"
         style="fill:#9baad9;fill-opacity:1;fill-rule:nonzero;stroke:none"
         id="path84" />
      <path
         d="m 2084.16,2205.08 -28.82,-16.75 -776.86,448.52 28.81,16.74 776.87,-448.51"
         style="fill:#9baad9;fill-opacity:1;fill-rule:nonzero;stroke:none"
         id="path86" />
      <path
         d="m 1052.08,2175.44 -28.73,-16.69 -284.713,164.37 28.726,16.7 284.717,-164.38"
         style="fill:#9baad9;fill-opacity:1;fill-rule:nonzero;stroke:none"
         id="path88" />
      <path
         d="m 2026.62,2171.64 -28.73,-16.7 -776.86,448.53 28.73,16.69 776.86,-448.52"
         style="fill:#9baad9;fill-opacity:1;fill-rule:nonzero;stroke:none"
         id="path90" />
      <path
         d="m 1969.08,2138.2 -28.73,-16.7 -776.86,448.53 28.73,16.69 776.86,-448.52"
         style="fill:#9baad9;fill-opacity:1;fill-rule:nonzero;stroke:none"
         id="path92" />
      <path
         d="m 1578.85,2121.15 -28.73,-16.69 -595.823,344 28.73,16.69 595.823,-344"
         style="fill:#9baad9;fill-opacity:1;fill-rule:nonzero;stroke:none"
         id="path94" />
      <path
         d="m 1817.43,2050.07 -28.73,-16.69 -776.86,448.51 28.73,16.7 776.86,-448.52"
         style="fill:#9baad9;fill-opacity:1;fill-rule:nonzero;stroke:none"
         id="path96" />
      <path
         d="m 1050.77,1993.02 -28.73,-16.7 -441.528,254.92 28.726,16.69 441.532,-254.91"
         style="fill:#9baad9;fill-opacity:1;fill-rule:nonzero;stroke:none"
         id="path98" />
      <path
         d="m 1659.3,1958.17 -28.81,-16.73 -776.861,448.51 28.812,16.75 776.859,-448.53"
         style="fill:#9baad9;fill-opacity:1;fill-rule:nonzero;stroke:none"
         id="path100" />
      <path
         d="m 1601.76,1924.74 -28.72,-16.69 -776.864,448.51 28.726,16.7 776.858,-448.52"
         style="fill:#9baad9;fill-opacity:1;fill-rule:nonzero;stroke:none"
         id="path102" />
      <path
         d="m 1443.64,1832.85 -28.81,-16.75 -776.865,448.53 28.812,16.74 776.863,-448.52"
         style="fill:#9baad9;fill-opacity:1;fill-rule:nonzero;stroke:none"
         id="path104" />
      <path
         d="m 1850.8,2639.61 -28.81,-16.74 -284.71,164.38 28.81,16.74 284.71,-164.38"
         style="fill:#9baad9;fill-opacity:1;fill-rule:nonzero;stroke:none"
         id="path106" />
      <path
         d="m 2690.68,3683.94 -1400.52,807.07 c -14.92,8.6 -28.29,8.8 -37.53,2.25 l -48.96,-28.6 -0.02,-0.25 c 8.88,3.87 20.39,2.85 33.12,-4.5 l 1400.51,-807.07 c 27.76,-16.02 50.18,-54.87 50.09,-86.75 l -0.42,-149.64 -2.62,-923.85 c -0.04,-15.32 -5.37,-26.1 -13.88,-31.53 l 0.09,-0.05 50.4,29.47 c 1.48,0.68 2.88,1.49 4.2,2.44 7.77,5.68 12.54,16.2 12.57,30.77 l 2.63,923.85 0.42,149.64 c 0.09,31.88 -22.33,70.72 -50.08,86.75"
         style="fill:#597dbb;fill-opacity:1;fill-rule:nonzero;stroke:none"
         id="path108" />
      <path
         d="m 1185.94,4281.55 v -0.01 0.01"
         style="fill:#cfeff2;fill-opacity:1;fill-rule:nonzero;stroke:none"
         id="path110" />
      <path
         d="m 2684.33,2492.6 2.62,923.85 0.42,149.64 c 0.09,31.88 -22.33,70.73 -50.09,86.75 l -1400.51,807.07 c -12.73,7.35 -24.24,8.37 -33.12,4.5 -10.48,-4.55 -17.24,-15.98 -17.29,-33.23 l -0.42,-149.63 v -0.01 l -2.62,-923.85 c -0.09,-31.88 22.34,-70.67 50.08,-86.69 l 1400.52,-807.07 c 14.41,-8.32 27.33,-8.72 36.53,-2.86 8.51,5.43 13.84,16.21 13.88,31.53"
         style="fill:#9baad9;fill-opacity:1;fill-rule:nonzero;stroke:none"
         id="path112" />
      <path
         d="m 2548.32,3419.13 -2.15,-757.03 c -0.03,-12.56 -4.39,-21.39 -11.37,-25.84 l 0.07,-0.04 34.97,20.34 c 1.21,0.55 2.37,1.22 3.44,2 6.37,4.65 10.27,13.28 10.31,25.2 l 2.14,757.04 -37.41,-21.67"
         style="fill:#d5f1f6;fill-opacity:1;fill-rule:nonzero;stroke:none"
         id="path114" />
      <path
         d="m 2545.05,3634.5 -1262.24,728.75 c -12.22,7.05 -23.19,7.21 -30.75,1.85 l -33.79,-19.63 -0.02,-0.2 c 7.28,3.16 16.71,2.33 27.15,-3.69 l 1262.23,-728.75 c 22.73,-13.13 41.11,-44.96 41.04,-71.08 l -0.35,-122.62 37.41,21.67 0.35,122.61 c 0.08,26.13 -18.3,57.96 -41.03,71.09"
         style="fill:#bd2b61;fill-opacity:1;fill-rule:nonzero;stroke:none"
         id="path116" />
      <path
         d="m 2546.17,2662.1 2.15,757.03 -1344.58,776.3 -2.15,-757.04 c -0.07,-26.12 18.31,-57.91 41.04,-71.03 l 1262.24,-728.75 c 11.81,-6.82 22.4,-7.15 29.93,-2.35 6.98,4.45 11.34,13.28 11.37,25.84"
         style="fill:#ffffff;fill-opacity:1;fill-rule:nonzero;stroke:none"
         id="path118" />
      <path
         d="m 2548.32,3419.13 v 0 l 0.35,122.62 c 0.07,26.12 -18.31,57.95 -41.04,71.08 L 1245.4,4341.58 c -10.44,6.02 -19.87,6.85 -27.15,3.69 -8.58,-3.73 -14.12,-13.1 -14.16,-27.23 l -0.35,-122.61 1344.58,-776.3"
         style="fill:#f25170;fill-opacity:1;fill-rule:nonzero;stroke:none"
         id="path120" />
      <path
         d="m 2228.62,3161.78 c 15.89,-9.17 28.74,-31.43 28.68,-49.74 l -0.14,-52.34 c -0.06,-18.31 -12.99,-25.69 -28.88,-16.51 l -108.88,62.86 c -15.89,9.18 -28.74,31.44 -28.69,49.75 l 0.15,52.34 c 0.05,18.31 12.98,25.68 28.88,16.5 l 108.88,-62.86"
         style="fill:#9baad9;fill-opacity:1;fill-rule:nonzero;stroke:none"
         id="path122" />
      <path
         d="m 2228.16,3003.26 c 15.9,-9.17 28.75,-31.43 28.7,-49.74 l -0.15,-52.34 c -0.05,-18.31 -12.98,-25.68 -28.88,-16.51 l -108.88,62.86 c -15.89,9.18 -28.74,31.43 -28.69,49.75 l 0.15,52.34 c 0.05,18.31 12.98,25.68 28.88,16.5 l 108.87,-62.86"
         style="fill:#9baad9;fill-opacity:1;fill-rule:nonzero;stroke:none"
         id="path124" />
      <path
         d="m 2029.66,3435.42 c 15.9,-9.17 28.75,-31.47 28.69,-49.74 l -0.15,-52.34 c -0.05,-18.31 -12.98,-25.68 -28.87,-16.5 l -108.84,62.83 c -15.93,9.2 -28.78,31.46 -28.73,49.77 l 0.15,52.34 c 0.05,18.26 12.98,25.68 28.92,16.48 l 108.83,-62.84"
         style="fill:#9baad9;fill-opacity:1;fill-rule:nonzero;stroke:none"
         id="path126" />
      <path
         d="m 2030.11,3593.95 c 15.9,-9.18 28.74,-31.48 28.69,-49.75 l -0.14,-52.34 c -0.06,-18.31 -12.99,-25.68 -28.88,-16.5 l -108.84,62.83 c -15.94,9.2 -28.78,31.46 -28.73,49.77 l 0.15,52.34 c 0.05,18.26 12.98,25.68 28.92,16.48 l 108.83,-62.83"
         style="fill:#546cb6;fill-opacity:1;fill-rule:nonzero;stroke:none"
         id="path128" />
      <path
         d="m 1829.81,3392.03 c 15.9,-9.18 28.79,-31.45 28.73,-49.76 l -0.14,-52.35 c -0.06,-18.31 -13.03,-25.66 -28.92,-16.48 l -108.84,62.84 c -15.93,9.2 -28.78,31.45 -28.73,49.76 l 0.15,52.35 c 0.05,18.31 12.98,25.68 28.92,16.48 l 108.83,-62.84"
         style="fill:#9baad9;fill-opacity:1;fill-rule:nonzero;stroke:none"
         id="path130" />
      <path
         d="m 1830.26,3550.55 c 15.9,-9.18 28.79,-31.5 28.73,-49.76 l -0.14,-52.35 c -0.06,-18.31 -13.03,-25.66 -28.92,-16.48 l -108.84,62.83 c -15.93,9.21 -28.79,31.46 -28.73,49.77 l 0.14,52.34 c 0.06,18.27 12.99,25.69 28.93,16.49 l 108.83,-62.84"
         style="fill:#9baad9;fill-opacity:1;fill-rule:nonzero;stroke:none"
         id="path132" />
      <path
         d="m 1830.71,3709.07 c 15.9,-9.18 28.79,-31.5 28.73,-49.77 l -0.14,-52.34 c -0.06,-18.31 -13.03,-25.66 -28.92,-16.48 l -108.84,62.84 c -15.93,9.19 -28.79,31.45 -28.73,49.76 l 0.14,52.34 c 0.06,18.27 12.99,25.69 28.93,16.48 l 108.83,-62.83"
         style="fill:#546cb6;fill-opacity:1;fill-rule:nonzero;stroke:none"
         id="path134" />
      <path
         d="m 2029.21,3276.9 c 15.9,-9.17 28.74,-31.43 28.7,-49.74 l -0.16,-52.34 c -0.04,-18.31 -12.98,-25.68 -28.87,-16.5 l -108.84,62.83 c -15.93,9.2 -28.78,31.46 -28.73,49.77 l 0.15,52.34 c 0.05,18.31 12.98,25.69 28.92,16.48 l 108.83,-62.84"
         style="fill:#f25170;fill-opacity:1;fill-rule:nonzero;stroke:none"
         id="path136" />
      <path
         d="m 2428.92,3363.7 c 15.89,-9.18 28.74,-31.48 28.68,-49.74 l -0.14,-52.35 c -0.05,-18.31 -12.99,-25.68 -28.88,-16.5 l -108.88,62.86 c -15.89,9.17 -28.74,31.43 -28.69,49.74 l 0.15,52.34 c 0.05,18.27 12.99,25.68 28.88,16.51 l 108.88,-62.86"
         style="fill:#546cb6;fill-opacity:1;fill-rule:nonzero;stroke:none"
         id="path138" />
      <path
         d="m 2428.47,3205.18 c 15.89,-9.18 28.74,-31.48 28.69,-49.75 l -0.15,-52.34 c -0.05,-18.31 -12.99,-25.68 -28.88,-16.5 l -108.88,62.86 c -15.89,9.17 -28.74,31.43 -28.69,49.74 l 0.15,52.34 c 0.05,18.26 12.99,25.68 28.88,16.51 l 108.88,-62.86"
         style="fill:#9baad9;fill-opacity:1;fill-rule:nonzero;stroke:none"
         id="path140" />
      <path
         d="m 2427.57,2888.14 c 15.89,-9.18 28.74,-31.43 28.68,-49.74 l -0.14,-52.35 c -0.06,-18.31 -12.98,-25.68 -28.88,-16.5 l -108.88,62.86 c -15.89,9.18 -28.74,31.43 -28.69,49.74 l 0.15,52.34 c 0.05,18.31 12.99,25.69 28.88,16.51 l 108.88,-62.86"
         style="fill:#f25170;fill-opacity:1;fill-rule:nonzero;stroke:none"
         id="path142" />
      <path
         d="m 2428.02,3046.66 c 15.89,-9.18 28.74,-31.44 28.69,-49.75 l -0.15,-52.34 c -0.06,-18.31 -12.99,-25.68 -28.88,-16.5 l -108.88,62.86 c -15.89,9.17 -28.74,31.43 -28.69,49.74 l 0.15,52.34 c 0.05,18.31 12.99,25.69 28.88,16.51 l 108.88,-62.86"
         style="fill:#9baad9;fill-opacity:1;fill-rule:nonzero;stroke:none"
         id="path144" />
      <path
         d="m 2229.07,3320.3 c 15.89,-9.18 28.74,-31.48 28.68,-49.74 l -0.14,-52.34 c -0.06,-18.31 -12.99,-25.69 -28.88,-16.51 l -108.88,62.86 c -15.89,9.18 -28.74,31.43 -28.69,49.74 l 0.15,52.35 c 0.05,18.26 12.98,25.68 28.88,16.5 l 108.88,-62.86"
         style="fill:#9baad9;fill-opacity:1;fill-rule:nonzero;stroke:none"
         id="path146" />
      <path
         d="m 2229.51,3478.82 c 15.9,-9.18 28.75,-31.48 28.69,-49.74 l -0.14,-52.35 c -0.06,-18.31 -12.99,-25.68 -28.88,-16.5 l -108.88,62.86 c -15.9,9.18 -28.74,31.43 -28.69,49.74 l 0.15,52.35 c 0.05,18.26 12.98,25.68 28.87,16.5 l 108.88,-62.86"
         style="fill:#546cb6;fill-opacity:1;fill-rule:nonzero;stroke:none"
         id="path148" />
      <path
         d="m 2028.76,3118.38 c 15.9,-9.17 28.74,-31.42 28.7,-49.74 l -0.16,-52.34 c -0.04,-18.31 -12.98,-25.68 -28.87,-16.51 l -108.84,62.84 c -15.93,9.2 -28.78,31.46 -28.73,49.77 l 0.15,52.34 c 0.05,18.31 12.98,25.68 28.92,16.48 l 108.83,-62.84"
         style="fill:#9baad9;fill-opacity:1;fill-rule:nonzero;stroke:none"
         id="path150" />
      <path
         d="m 1629.96,3348.63 c 15.89,-9.17 28.79,-31.45 28.74,-49.76 l -0.16,-52.35 c -0.04,-18.31 -13.02,-25.65 -28.91,-16.48 l -108.84,62.84 c -15.94,9.2 -28.78,31.46 -28.73,49.77 l 0.15,52.34 c 0.05,18.31 12.98,25.68 28.92,16.48 l 108.83,-62.84"
         style="fill:#9baad9;fill-opacity:1;fill-rule:nonzero;stroke:none"
         id="path152" />
      <path
         d="m 1431.91,3939.32 c 15.89,-9.18 28.78,-31.5 28.73,-49.77 l -0.15,-52.34 c -0.05,-18.31 -13.02,-25.66 -28.92,-16.48 l -108.83,62.83 c -15.94,9.2 -28.78,31.46 -28.74,49.77 l 0.16,52.34 c 0.04,18.27 12.98,25.69 28.92,16.48 l 108.83,-62.83"
         style="fill:#f68b45;fill-opacity:1;fill-rule:nonzero;stroke:none"
         id="path154" />
      <path
         d="m 1431.46,3780.8 c 15.89,-9.18 28.78,-31.5 28.73,-49.76 l -0.15,-52.35 c -0.05,-18.31 -13.02,-25.66 -28.92,-16.48 l -108.83,62.83 c -15.94,9.2 -28.78,31.46 -28.74,49.77 l 0.16,52.34 c 0.04,18.27 12.98,25.69 28.91,16.48 l 108.84,-62.83"
         style="fill:#fabb69;fill-opacity:1;fill-rule:nonzero;stroke:none"
         id="path156" />
      <path
         d="m 1431.01,3622.28 c 15.89,-9.18 28.78,-31.45 28.73,-49.77 l -0.15,-52.34 c -0.05,-18.31 -13.02,-25.66 -28.92,-16.48 l -108.83,62.83 c -15.94,9.21 -28.78,31.46 -28.73,49.77 l 0.15,52.34 c 0.05,18.32 12.98,25.69 28.91,16.49 l 108.84,-62.84"
         style="fill:#fabb69;fill-opacity:1;fill-rule:nonzero;stroke:none"
         id="path158" />
      <path
         d="m 1430.56,3463.76 c 15.9,-9.18 28.79,-31.46 28.73,-49.77 l -0.14,-52.34 c -0.06,-18.31 -13.03,-25.66 -28.93,-16.48 l -108.83,62.84 c -15.94,9.2 -28.78,31.45 -28.73,49.76 l 0.15,52.35 c 0.05,18.31 12.98,25.68 28.91,16.48 l 108.84,-62.84"
         style="fill:#fabb69;fill-opacity:1;fill-rule:nonzero;stroke:none"
         id="path160" />
      <path
         d="m 1631.31,3824.19 c 15.9,-9.18 28.78,-31.5 28.73,-49.76 l -0.15,-52.35 c -0.05,-18.31 -13.02,-25.65 -28.91,-16.47 l -108.84,62.83 c -15.94,9.2 -28.79,31.45 -28.73,49.77 l 0.14,52.34 c 0.06,18.26 12.99,25.68 28.93,16.48 l 108.83,-62.84"
         style="fill:#546cb6;fill-opacity:1;fill-rule:nonzero;stroke:none"
         id="path162" />
      <path
         d="m 1630.86,3665.67 c 15.89,-9.17 28.78,-31.5 28.73,-49.76 l -0.15,-52.35 c -0.05,-18.31 -13.02,-25.65 -28.91,-16.48 l -108.84,62.84 c -15.94,9.2 -28.78,31.46 -28.73,49.77 l 0.15,52.34 c 0.05,18.26 12.98,25.68 28.92,16.48 l 108.83,-62.84"
         style="fill:#9baad9;fill-opacity:1;fill-rule:nonzero;stroke:none"
         id="path164" />
      <path
         d="m 1630.41,3507.15 c 15.89,-9.17 28.78,-31.45 28.74,-49.76 l -0.16,-52.35 c -0.04,-18.31 -13.02,-25.65 -28.91,-16.48 l -108.84,62.84 c -15.94,9.2 -28.78,31.46 -28.73,49.77 l 0.15,52.34 c 0.05,18.31 12.98,25.68 28.92,16.48 l 108.83,-62.84"
         style="fill:#9baad9;fill-opacity:1;fill-rule:nonzero;stroke:none"
         id="path166" />
      <path
         d="m 1829.37,3233.51 c 15.89,-9.17 28.77,-31.45 28.73,-49.76 l -0.15,-52.35 c -0.05,-18.31 -13.03,-25.66 -28.92,-16.48 l -108.84,62.84 c -15.93,9.2 -28.78,31.45 -28.73,49.76 l 0.15,52.35 c 0.05,18.31 12.98,25.68 28.92,16.48 l 108.84,-62.84"
         style="fill:#9baad9;fill-opacity:1;fill-rule:nonzero;stroke:none"
         id="path168" />
      <path
         d="m 1711.62,3643.79 c 1,-0.57 2.06,-1.51 3.13,-2.88 29.01,-37.01 56.9,-75.2 83.66,-114.37 20.32,4.07 40.59,8.16 60.91,12.22 1.1,0.22 2.19,-0.03 3.21,-0.62 5.09,-2.94 8.44,-14.15 2.97,-15.23 -18.98,-3.79 -37.96,-7.62 -56.94,-11.45 23.88,-35.58 46.93,-72.03 68.93,-109.26 4.44,-7.52 0.17,-12.19 -4.63,-9.42 -1.4,0.81 -2.84,2.25 -4.12,4.43 -22.58,38.24 -46.29,75.6 -70.93,112.1 -38.25,-7.68 -76.55,-15.34 -114.8,-23.02 -1.11,-0.22 -2.2,0.04 -3.23,0.63 -5.1,2.95 -8.42,14.11 -2.99,15.21 36.96,7.42 73.87,14.82 110.79,22.26 -25.34,36.91 -51.69,72.91 -79.08,107.89 -5.72,7.3 -2.19,14.58 3.12,11.51"
         style="fill:#353373;fill-opacity:1;fill-rule:nonzero;stroke:none"
         id="path170" />
      <path
         d="m 2278.08,3143.02 c 0.92,-0.53 1.9,-1.35 2.88,-2.48 31.2,-36.07 62.39,-72.13 93.59,-108.19 26.91,1.31 53.82,2.63 80.73,3.94 1.03,0.05 2.04,-0.25 3,-0.8 5.52,-3.19 9.13,-14.73 3.18,-15.06 -24.49,-1.18 -49.02,-2.38 -73.51,-3.56 31.86,-36.83 63.72,-73.66 95.59,-110.44 6.09,-7.07 2.28,-14.43 -3.38,-11.16 -0.92,0.53 -1.89,1.34 -2.87,2.47 -34.2,39.48 -68.35,78.98 -102.54,118.5 -30.72,-1.52 -61.43,-3.04 -92.15,-4.51 -1.03,-0.05 -2.04,0.25 -3,0.8 -5.51,3.19 -9.13,14.72 -3.18,15.01 28.29,1.43 56.63,2.79 84.92,4.17 -28.86,33.37 -57.77,66.77 -86.63,100.14 -6.13,7.1 -2.32,14.46 3.37,11.17"
         style="fill:#353373;fill-opacity:1;fill-rule:nonzero;stroke:none"
         id="path172" />
      <path
         d="m 1889.48,3207.67 c 0.88,-0.51 1.8,-1.26 2.74,-2.29 35.78,-39.24 70.18,-80.51 103.23,-123.55 23.58,3.67 47.2,7.32 70.78,10.94 1.08,0.17 2.16,-0.1 3.17,-0.68 5.21,-3.01 8.61,-14.26 3.01,-15.13 -21.82,-3.39 -43.65,-6.78 -65.47,-10.12 22.73,-30.17 44.79,-61.15 66.14,-92.97 4.91,-7.36 0.38,-11.96 -4.78,-8.98 -1.35,0.77 -2.74,2.07 -4.01,3.98 -22.1,32.97 -45.07,65 -68.76,96.15 -31.52,-4.84 -63.04,-9.74 -94.56,-14.59 -1.09,-0.17 -2.16,0.1 -3.17,0.68 -5.21,3.01 -8.62,14.31 -3.01,15.18 29.72,4.59 59.45,9.18 89.17,13.77 -31.47,40.59 -64.17,79.53 -98.03,116.66 -6.27,6.92 -2.33,14.34 3.55,10.95"
         style="fill:#353373;fill-opacity:1;fill-rule:nonzero;stroke:none"
         id="path174" />
      <path
         d="m 1491.26,4424.29 0.34,0.04 -0.26,-0.02 z"
         style="fill:#ffffff;fill-opacity:1;fill-rule:nonzero;stroke:none"
         id="path176" />
      <path
         d="m 1335.06,4215.45 0.02,1.48 -0.02,-1.48"
         style="fill:#ffffff;fill-opacity:1;fill-rule:nonzero;stroke:none"
         id="path178" />
      <path
         d="m 1439.27,4176.02 c -3.95,2.28 -7.7,3.46 -11.11,3.71 -4.09,0.29 -7.6,-0.92 -10.38,-3.26 -3.84,-3.24 -6.25,-8.7 -6.27,-16.24 -0.05,-17.59 12.31,-38.96 27.58,-47.78 3.21,-1.85 6.24,-2.84 9.1,-3.35 5.74,-1 10.66,0.47 13.98,4.29 2.92,3.36 4.64,8.4 4.66,14.9 0.05,17.55 -12.28,38.91 -27.56,47.73"
         style="fill:#bd2b61;fill-opacity:1;fill-rule:nonzero;stroke:none"
         id="path180" />
      <path
         d="m 1387.57,4265.95 0.09,0.26 0.26,0.72 z m -9.93,-51.6 -0.01,0.28 v 0.01 z m 204.54,130.61 c -0.33,3.75 -0.94,7.88 -1.76,12.08 v 0.01 l -0.28,1.45 -0.04,0.25 -0.02,0.08 -0.07,0.3 -0.6,2.63 -0.26,1.13 -0.05,0.22 -0.02,0.08 -0.24,0.91 -0.48,1.8 -0.08,0.31 -0.05,0.18 -0.07,0.22 c -0.29,1.06 -0.6,2.08 -0.92,3.1 l -0.16,0.49 -0.03,0.11 -0.1,0.31 -0.82,2.4 c -7.41,21.31 -20.72,36.27 -37.59,44.52 l -1.69,0.8 -1.02,0.48 -0.55,0.23 -0.45,0.2 -0.09,0.04 -0.13,0.05 -1.07,0.46 h -0.01 c -2.58,1.06 -4.99,1.88 -7.08,2.47 l -0.65,0.16 -1.45,0.41 -0.37,0.11 -1.67,0.35 -0.42,0.1 -1.06,0.27 -0.36,0.06 -0.92,0.19 -0.25,0.06 -0.42,0.07 0.57,-0.12 c -1.41,0.27 -2.86,0.52 -4.38,0.71 l -2.08,0.22 -1.11,0.11 -2.45,0.18 -0.53,0.05 -1.84,0.07 -0.52,0.02 h -0.11 l -0.4,0.01 0.48,-0.01 -0.3,-0.01 -1.49,0.03 h -0.08 l -1.23,-0.04 c -1.64,-0.04 -3.32,-0.09 -5.15,-0.2 -1.4,-0.07 -2.96,-0.26 -4.55,-0.48 l -1.33,-0.17 -0.78,-0.09 h 0.02 l -0.36,-0.04 -1.03,-0.2 c -1.81,-0.29 -3.55,-0.61 -5.21,-0.95 l -0.44,-0.08 -0.2,-0.06 h -0.03 l -0.2,-0.04 c -0.73,-0.14 -4.6,-0.93 -10.52,-2.91 l -0.97,-0.33 -1.18,-0.4 -0.27,-0.1 c -5.3,-1.45 -11.24,-4.01 -17.61,-7.53 -25.52,-13.01 -51.33,-35.69 -73.86,-68.55 l -0.93,-1.34 -1.43,-2.1 c -0.74,-1.13 -1.5,-2.24 -2.24,-3.4 -1.1,-1.69 -2.04,-3.18 -2.87,-4.51 l -0.2,-0.33 c -1.39,-2.22 -2.34,-3.82 -2.74,-4.5 l -0.48,-0.82 c -0.98,-1.65 -1.96,-3.33 -2.92,-5.04 -0.57,-0.98 -1.11,-1.99 -1.68,-2.98 l -0.13,-0.25 -0.19,-0.33 c -0.93,-1.62 -1.85,-3.25 -2.74,-4.9 l -0.99,-1.85 c -5.08,-9.56 -9.55,-19.59 -13.2,-30.06 -4.28,-11.52 -7.37,-23.18 -8.88,-34.73 -0.55,-2.79 -1.03,-5.83 -1.36,-8.53 -0.15,-1.03 -0.36,-2.59 -0.59,-4.63 -0.22,-1.82 -0.37,-3.39 -0.5,-5.24 l -0.02,-0.15 -0.02,-0.42 c -0.27,-3.4 -0.49,-7.37 -0.58,-11.85 l 0.01,0.27 -0.01,-0.31 v -0.06 0.04 -0.09 0.05 -0.11 c 0,-1.75 0.02,-3.74 0.06,-5.76 l 0.01,-0.19 c 0.02,-1.05 0.06,-2.09 0.1,-3.12 v -0.33 l 0.01,-0.14 c 0.05,-1.06 0.11,-2.08 0.19,-3.02 0.13,-1.74 0.32,-3.73 0.54,-5.75 l 0.02,-0.27 0.07,-0.67 0.03,-0.23 c 0.11,-0.94 0.23,-1.93 0.39,-2.95 l 0.17,-1.09 0.32,-1.94 0.12,-0.69 0.04,-0.16 c 0.21,-1.16 0.42,-2.28 0.63,-3.29 l 0.19,-0.89 0.06,-0.32 0.11,-0.41 c 0.92,-4.2 1.98,-7.87 3.07,-11.05 l 0.47,-1.38 -0.07,0.18 0.08,-0.2 c 0.42,-1.18 0.88,-2.41 1.39,-3.65 l 0.22,-0.6 0.37,-0.82 0.01,-0.02 0.44,-1.13 0.29,-0.6 c 0.41,-0.93 0.82,-1.83 1.2,-2.65 l 0.2,-0.37 0.27,-0.58 c 0.62,-1.31 1.4,-2.77 2.24,-4.24 l 1.18,-2.02 0.75,-1.24 c 3.86,-6.3 8.45,-11.79 13.76,-16.46 8.78,-7.92 19.25,-13.37 30.99,-16.06 0.81,-0.18 1.7,-0.39 2.71,-0.58 13.39,-2.74 27.25,-1.8 40.97,1.96 1.95,0.33 3.89,0.79 5.84,1.29 3.39,-0.6 6.29,0.28 8.25,2.53 1.72,1.98 2.74,4.95 2.75,8.79 0.03,10.35 -7.25,22.95 -16.26,28.16 -2.33,1.34 -4.54,2.03 -6.55,2.18 -2.42,0.18 -4.49,-0.54 -6.13,-1.92 l -0.6,-0.15 -1.18,-0.26 c -1.23,-0.29 -2.44,-0.52 -3.64,-0.72 l -0.04,-0.01 -0.51,-0.08 -1.82,-0.25 c -5.92,-0.63 -11.5,-0.21 -16.57,1.42 l -0.7,0.28 c -1.55,0.54 -3.07,1.14 -4.52,1.91 -5.63,3.44 -9.59,8.36 -12.4,13.8 l -0.77,1.58 -0.78,1.74 -0.63,1.58 c -2.27,5.95 -3.44,12.18 -4.05,17.72 -0.13,4.28 -0.75,8.54 -0.71,12.82 0.74,16.87 3.96,33.04 8.9,48.23 0.94,2.66 1.96,5.47 2.97,8.21 2.76,7.07 5.99,14.48 9.81,22.02 l 0.13,0.26 c 0.7,1.39 1.45,2.79 2.2,4.18 l 4.11,7.33 5.19,8.36 0.29,0.44 2.71,3.95 c 2.16,3.13 4.38,6.18 6.66,9.14 l 1.83,2.35 c 11.93,15.03 25.21,27.76 38.53,37.02 l 1.5,1.01 c 1.29,0.87 2.56,1.7 3.85,2.5 1.02,0.64 2.07,1.25 3.11,1.87 l 2.51,1.43 c 6.98,3.69 13.52,6.34 19.61,7.93 l 2.29,0.52 c 1.09,0.24 2.17,0.44 3.23,0.61 l 0.33,0.06 c 1.15,0.16 2.28,0.31 3.41,0.39 l 1.24,0.08 c 6.82,0.32 13.2,-0.87 18.86,-3.86 9.34,-5.95 15.31,-16.81 17.85,-30.93 l 45.46,-26.2 c 0.49,8.72 -0.09,16.67 -2.03,23.41"
         style="fill:#c6d7d9;fill-opacity:1;fill-rule:nonzero;stroke:none"
         id="path182" />
      <path
         d="m 1729.85,4008.55 c -3.95,2.29 -7.69,3.46 -11.1,3.71 -4.1,0.29 -7.61,-0.91 -10.39,-3.26 -3.84,-3.24 -6.25,-8.69 -6.27,-16.24 -0.05,-17.58 12.31,-38.96 27.59,-47.77 3.2,-1.86 6.23,-2.86 9.09,-3.35 5.75,-1.01 10.66,0.47 13.98,4.28 2.92,3.36 4.64,8.4 4.66,14.9 0.05,17.55 -12.28,38.92 -27.56,47.73"
         style="fill:#bd2b61;fill-opacity:1;fill-rule:nonzero;stroke:none"
         id="path184" />
      <path
         d="m 1678.15,4098.48 0.09,0.27 0.26,0.7 z m -9.93,-51.6 -0.01,0.27 v 0.01 0.02 z m 204.54,130.61 c -0.33,3.76 -0.94,7.89 -1.75,12.08 l -0.01,0.01 -0.28,1.44 -0.04,0.25 -0.02,0.09 -0.06,0.3 -0.61,2.64 -0.26,1.12 -0.05,0.22 -0.02,0.08 -0.23,0.91 -0.49,1.8 -0.08,0.3 -0.05,0.19 -0.06,0.22 c -0.3,1.06 -0.61,2.09 -0.93,3.1 l -0.15,0.49 -0.04,0.11 -0.1,0.31 -0.82,2.4 c -7.41,21.32 -20.72,36.28 -37.58,44.52 l -1.7,0.81 -1.02,0.47 -0.54,0.24 -0.46,0.19 -0.09,0.05 -0.12,0.04 -1.08,0.47 v 0 c -2.59,1.05 -4.99,1.87 -7.09,2.46 l -0.65,0.16 -1.45,0.41 -0.37,0.11 -1.66,0.36 -0.42,0.1 -1.06,0.27 -0.37,0.06 -0.92,0.18 -0.25,0.05 -0.42,0.09 0.57,-0.13 c -1.41,0.27 -2.86,0.52 -4.38,0.72 l -2.08,0.21 -1.1,0.11 -2.45,0.19 -0.54,0.04 -1.84,0.06 -0.52,0.02 -0.11,0.01 -0.4,0.01 0.48,-0.02 h -0.3 l -1.49,0.03 h -0.08 l -1.23,-0.04 c -1.64,-0.03 -3.31,-0.09 -5.15,-0.19 -1.4,-0.08 -2.96,-0.27 -4.55,-0.48 l -1.33,-0.18 -0.78,-0.08 h 0.02 l -0.36,-0.04 -1.03,-0.21 c -1.8,-0.29 -3.54,-0.6 -5.21,-0.96 l -0.44,-0.07 -0.2,-0.05 -0.03,-0.01 -0.19,-0.04 c -0.74,-0.13 -4.61,-0.92 -10.53,-2.9 l -0.97,-0.33 -1.17,-0.41 -0.28,-0.1 c -5.3,-1.45 -11.24,-4.01 -17.61,-7.53 -25.52,-13.01 -51.33,-35.68 -73.86,-68.54 l -0.93,-1.35 -1.43,-2.1 c -0.74,-1.12 -1.5,-2.25 -2.24,-3.39 -1.09,-1.69 -2.04,-3.19 -2.87,-4.51 l -0.2,-0.33 c -1.39,-2.23 -2.34,-3.82 -2.74,-4.51 l -0.48,-0.82 c -0.98,-1.65 -1.95,-3.33 -2.92,-5.04 -0.57,-0.99 -1.11,-1.99 -1.68,-2.98 l -0.13,-0.25 -0.19,-0.34 c -0.93,-1.61 -1.84,-3.24 -2.73,-4.88 l -1,-1.86 c -5.08,-9.55 -9.54,-19.59 -13.2,-30.05 -4.28,-11.52 -7.37,-23.18 -8.88,-34.73 -0.54,-2.8 -1.02,-5.84 -1.36,-8.54 -0.15,-1.04 -0.36,-2.59 -0.59,-4.63 -0.21,-1.82 -0.37,-3.39 -0.5,-5.23 l -0.01,-0.16 -0.03,-0.43 c -0.27,-3.39 -0.49,-7.36 -0.58,-11.84 l 0.01,0.28 -0.01,-0.31 v -0.06 0.03 -0.09 0.06 -0.12 c 0,-1.74 0.02,-3.74 0.06,-5.76 l 0.01,-0.19 c 0.02,-1.05 0.06,-2.09 0.1,-3.11 l 0.01,-0.34 0.01,-0.14 c 0.04,-1.06 0.1,-2.08 0.18,-3.02 0.13,-1.74 0.32,-3.73 0.54,-5.74 l 0.02,-0.27 0.08,-0.68 0.03,-0.23 c 0.1,-0.94 0.22,-1.92 0.38,-2.95 l 0.17,-1.09 0.33,-1.93 0.12,-0.7 0.03,-0.16 c 0.21,-1.15 0.43,-2.28 0.63,-3.3 l 0.2,-0.88 0.06,-0.32 0.1,-0.41 c 0.92,-4.19 1.98,-7.87 3.07,-11.05 l 0.47,-1.37 -0.07,0.17 0.08,-0.19 c 0.43,-1.2 0.89,-2.42 1.39,-3.65 l 0.22,-0.61 0.37,-0.82 0.01,-0.02 0.45,-1.12 0.29,-0.61 c 0.41,-0.93 0.81,-1.83 1.19,-2.65 l 0.2,-0.37 0.27,-0.59 c 0.62,-1.31 1.4,-2.76 2.24,-4.22 l 1.18,-2.03 0.76,-1.24 c 3.85,-6.3 8.44,-11.79 13.76,-16.46 8.78,-7.92 19.24,-13.37 30.98,-16.05 0.81,-0.19 1.7,-0.39 2.71,-0.59 13.39,-2.75 27.25,-1.79 40.97,1.97 1.95,0.32 3.9,0.79 5.84,1.28 3.39,-0.59 6.29,0.28 8.25,2.53 1.72,1.98 2.74,4.95 2.75,8.79 0.03,10.35 -7.25,22.96 -16.26,28.16 -2.33,1.34 -4.54,2.04 -6.55,2.18 -2.42,0.18 -4.49,-0.53 -6.13,-1.91 l -0.6,-0.16 -1.18,-0.26 c -1.23,-0.29 -2.44,-0.52 -3.64,-0.72 l -0.04,-0.01 -0.51,-0.08 -1.81,-0.25 c -5.93,-0.63 -11.51,-0.21 -16.58,1.42 l -0.7,0.28 c -1.55,0.54 -3.07,1.14 -4.52,1.91 -5.63,3.44 -9.59,8.35 -12.4,13.81 l -0.77,1.57 -0.78,1.74 -0.63,1.58 c -2.27,5.95 -3.44,12.19 -4.05,17.72 -0.13,4.28 -0.75,8.54 -0.71,12.82 0.74,16.86 3.96,33.05 8.9,48.23 0.94,2.66 1.96,5.47 2.97,8.21 2.76,7.08 5.99,14.48 9.81,22.02 l 0.13,0.26 c 0.7,1.39 1.45,2.79 2.2,4.18 l 4.11,7.33 5.19,8.36 0.29,0.44 2.71,3.96 c 2.16,3.12 4.38,6.17 6.67,9.14 l 1.83,2.34 c 11.92,15.03 25.2,27.76 38.52,37.02 l 1.5,1.02 c 1.29,0.86 2.57,1.7 3.85,2.5 1.02,0.63 2.07,1.24 3.11,1.86 l 2.51,1.43 c 6.98,3.69 13.53,6.35 19.61,7.93 l 2.29,0.53 c 1.09,0.24 2.17,0.43 3.23,0.6 l 0.33,0.05 c 1.15,0.17 2.29,0.32 3.41,0.41 l 1.24,0.07 c 6.83,0.32 13.21,-0.87 18.86,-3.86 9.35,-5.94 15.31,-16.81 17.85,-30.92 l 45.47,-26.21 c 0.48,8.73 -0.1,16.67 -2.04,23.41"
         style="fill:#c6d7d9;fill-opacity:1;fill-rule:nonzero;stroke:none"
         id="path186" />
      <path
         d="m 2020.44,3841.25 c -3.96,2.29 -7.7,3.46 -11.11,3.71 -4.1,0.3 -7.61,-0.91 -10.38,-3.26 -3.85,-3.23 -6.25,-8.69 -6.28,-16.24 -0.05,-17.58 12.32,-38.96 27.59,-47.77 3.2,-1.86 6.23,-2.85 9.1,-3.35 5.74,-1.01 10.65,0.47 13.97,4.29 2.92,3.35 4.65,8.4 4.66,14.9 0.06,17.54 -12.28,38.91 -27.55,47.72"
         style="fill:#bd2b61;fill-opacity:1;fill-rule:nonzero;stroke:none"
         id="path188" />
      <path
         d="m 1968.74,3931.18 0.08,0.27 0.26,0.71 z m -9.94,-51.6 -0.01,0.28 v 0.02 z m 204.54,130.61 c -0.33,3.76 -0.94,7.89 -1.75,12.08 l -0.01,0.01 -0.28,1.45 -0.04,0.25 -0.02,0.09 -0.06,0.3 -0.61,2.63 -0.26,1.12 -0.04,0.22 -0.03,0.08 -0.23,0.92 -0.49,1.8 -0.08,0.3 -0.05,0.19 -0.06,0.22 c -0.3,1.05 -0.6,2.08 -0.93,3.1 l -0.15,0.48 -0.04,0.11 -0.09,0.31 -0.83,2.41 c -7.41,21.31 -20.72,36.27 -37.58,44.51 l -1.7,0.81 -1.02,0.48 -0.54,0.23 -0.46,0.2 -0.09,0.04 -0.12,0.04 -1.08,0.47 v 0 c -2.59,1.05 -4.99,1.87 -7.09,2.47 l -0.65,0.15 -1.45,0.41 -0.36,0.11 -1.67,0.37 -0.42,0.09 -1.06,0.27 -0.37,0.06 -0.92,0.18 -0.24,0.06 -0.42,0.08 0.57,-0.13 c -1.42,0.27 -2.87,0.52 -4.38,0.72 l -2.09,0.21 -1.1,0.12 -2.45,0.18 -0.54,0.04 -1.84,0.07 -0.52,0.02 -0.11,0.01 h -0.4 l 0.49,-0.01 -0.31,-0.01 -1.49,0.03 h -0.07 l -1.24,-0.04 c -1.64,-0.03 -3.31,-0.09 -5.15,-0.19 -1.4,-0.08 -2.96,-0.26 -4.55,-0.47 l -1.33,-0.19 -0.78,-0.08 h 0.02 l -0.35,-0.04 -1.04,-0.2 c -1.8,-0.29 -3.54,-0.61 -5.21,-0.96 l -0.44,-0.08 -0.2,-0.05 -0.03,-0.01 -0.19,-0.03 c -0.74,-0.14 -4.61,-0.93 -10.53,-2.91 l -0.97,-0.33 -1.17,-0.41 -0.28,-0.1 c -5.29,-1.44 -11.24,-4 -17.61,-7.52 -25.52,-13.01 -51.33,-35.7 -73.86,-68.55 l -0.92,-1.34 -1.43,-2.11 c -0.75,-1.13 -1.5,-2.24 -2.25,-3.39 -1.09,-1.69 -2.04,-3.19 -2.87,-4.51 l -0.2,-0.33 c -1.38,-2.23 -2.34,-3.82 -2.73,-4.5 l -0.49,-0.82 c -0.98,-1.65 -1.95,-3.34 -2.92,-5.05 -0.57,-0.98 -1.11,-1.99 -1.67,-2.98 l -0.14,-0.24 -0.19,-0.34 c -0.93,-1.62 -1.84,-3.25 -2.73,-4.89 l -1,-1.85 c -5.08,-9.57 -9.54,-19.6 -13.2,-30.06 -4.28,-11.52 -7.37,-23.18 -8.88,-34.73 -0.54,-2.79 -1.02,-5.84 -1.36,-8.53 -0.15,-1.04 -0.36,-2.6 -0.58,-4.64 -0.22,-1.82 -0.38,-3.39 -0.5,-5.23 l -0.02,-0.16 -0.03,-0.42 c -0.27,-3.4 -0.49,-7.37 -0.57,-11.84 v 0.27 -0.31 -0.06 0.04 -0.1 0.06 -0.11 c 0,-1.75 0.01,-3.75 0.06,-5.77 v -0.18 c 0.02,-1.06 0.06,-2.1 0.1,-3.12 l 0.01,-0.34 0.01,-0.13 c 0.05,-1.06 0.11,-2.09 0.18,-3.03 0.13,-1.73 0.32,-3.73 0.54,-5.74 l 0.02,-0.26 0.08,-0.68 0.03,-0.24 c 0.1,-0.93 0.23,-1.92 0.38,-2.95 l 0.17,-1.09 0.33,-1.93 0.12,-0.7 0.03,-0.15 c 0.21,-1.16 0.43,-2.29 0.63,-3.3 l 0.2,-0.88 0.06,-0.33 0.1,-0.41 c 0.93,-4.19 1.98,-7.87 3.07,-11.05 l 0.47,-1.37 -0.07,0.18 0.08,-0.2 c 0.43,-1.19 0.89,-2.41 1.39,-3.65 l 0.22,-0.6 0.37,-0.82 0.01,-0.02 0.45,-1.13 0.29,-0.6 c 0.41,-0.94 0.81,-1.83 1.2,-2.65 l 0.19,-0.38 0.27,-0.58 c 0.62,-1.31 1.41,-2.77 2.24,-4.23 l 1.18,-2.02 0.76,-1.25 c 3.86,-6.3 8.44,-11.78 13.76,-16.46 8.78,-7.92 19.24,-13.37 30.98,-16.05 0.81,-0.19 1.71,-0.39 2.71,-0.58 13.39,-2.75 27.25,-1.8 40.97,1.96 1.95,0.32 3.9,0.79 5.84,1.28 3.39,-0.59 6.29,0.28 8.25,2.53 1.73,1.99 2.74,4.96 2.76,8.79 0.02,10.35 -7.26,22.96 -16.26,28.16 -2.34,1.35 -4.55,2.04 -6.56,2.18 -2.41,0.18 -4.48,-0.53 -6.13,-1.91 l -0.6,-0.16 -1.18,-0.26 c -1.23,-0.28 -2.44,-0.52 -3.64,-0.72 h -0.03 l -0.52,-0.08 -1.81,-0.25 c -5.93,-0.64 -11.51,-0.22 -16.58,1.42 l -0.7,0.28 c -1.55,0.53 -3.07,1.14 -4.52,1.9 -5.63,3.45 -9.59,8.36 -12.4,13.81 l -0.76,1.58 -0.79,1.73 -0.63,1.58 c -2.27,5.95 -3.44,12.19 -4.04,17.73 -0.13,4.27 -0.76,8.54 -0.72,12.82 0.74,16.86 3.96,33.03 8.91,48.23 0.93,2.66 1.95,5.46 2.97,8.2 2.75,7.08 5.99,14.49 9.8,22.03 l 0.13,0.25 c 0.7,1.4 1.46,2.79 2.2,4.19 l 4.11,7.32 5.19,8.36 0.29,0.45 2.71,3.95 c 2.17,3.12 4.38,6.18 6.67,9.14 l 1.83,2.34 c 11.93,15.04 25.2,27.76 38.52,37.03 l 1.5,1.01 c 1.29,0.87 2.57,1.7 3.85,2.5 1.02,0.64 2.08,1.24 3.12,1.86 l 2.51,1.43 c 6.97,3.7 13.52,6.35 19.61,7.93 l 2.29,0.53 c 1.08,0.24 2.16,0.43 3.22,0.61 l 0.33,0.05 c 1.15,0.16 2.29,0.31 3.41,0.4 l 1.24,0.07 c 6.83,0.33 13.21,-0.86 18.86,-3.85 9.35,-5.95 15.31,-16.82 17.85,-30.93 l 45.47,-26.2 c 0.48,8.72 -0.1,16.66 -2.04,23.4"
         style="fill:#c6d7d9;fill-opacity:1;fill-rule:nonzero;stroke:none"
         id="path190" />
      <path
         d="m 2311.02,3673.71 c -3.95,2.28 -7.7,3.46 -11.11,3.7 -4.09,0.3 -7.61,-0.91 -10.38,-3.25 -3.85,-3.24 -6.25,-8.7 -6.27,-16.24 -0.06,-17.58 12.31,-38.96 27.58,-47.78 3.2,-1.85 6.23,-2.85 9.1,-3.35 5.74,-1 10.66,0.48 13.98,4.29 2.91,3.36 4.64,8.4 4.66,14.9 0.05,17.55 -12.29,38.91 -27.56,47.73"
         style="fill:#bd2b61;fill-opacity:1;fill-rule:nonzero;stroke:none"
         id="path192" />
      <path
         d="m 2259.32,3763.64 0.08,0.26 0.27,0.71 z m -9.94,-51.6 v 0.27 0 0.02 z m 204.55,130.61 c -0.34,3.75 -0.94,7.88 -1.76,12.08 v 0.01 l -0.29,1.44 -0.03,0.25 -0.03,0.09 -0.06,0.3 -0.61,2.63 -0.26,1.13 -0.04,0.22 -0.02,0.08 -0.24,0.91 -0.49,1.8 -0.08,0.3 -0.04,0.19 -0.07,0.22 c -0.3,1.06 -0.6,2.08 -0.93,3.1 l -0.15,0.48 -0.04,0.12 -0.09,0.31 -0.82,2.4 c -7.42,21.31 -20.72,36.27 -37.59,44.51 l -1.7,0.81 -1.01,0.48 -0.55,0.23 -0.46,0.2 -0.09,0.04 -0.12,0.05 -1.08,0.46 v 0 c -2.58,1.06 -4.99,1.88 -7.09,2.47 l -0.65,0.16 -1.45,0.41 -0.36,0.1 -1.67,0.37 -0.42,0.09 -1.06,0.27 -0.36,0.06 -0.93,0.18 -0.24,0.07 -0.42,0.07 0.57,-0.12 c -1.42,0.26 -2.87,0.52 -4.38,0.71 l -2.08,0.22 -1.11,0.11 -2.45,0.18 -0.54,0.05 -1.84,0.06 -0.51,0.02 -0.12,0.01 -0.4,0.01 0.49,-0.02 h -0.31 l -1.48,0.02 -0.08,0.01 -1.23,-0.05 c -1.64,-0.03 -3.32,-0.09 -5.16,-0.19 -1.4,-0.07 -2.95,-0.26 -4.54,-0.47 l -1.34,-0.18 -0.78,-0.09 h 0.02 l -0.35,-0.04 -1.04,-0.2 c -1.8,-0.29 -3.54,-0.6 -5.2,-0.95 l -0.45,-0.08 -0.2,-0.06 h -0.03 l -0.19,-0.04 c -0.74,-0.14 -4.61,-0.93 -10.52,-2.91 l -0.98,-0.33 -1.17,-0.41 -0.28,-0.1 c -5.29,-1.44 -11.24,-4 -17.61,-7.53 -25.52,-13 -51.33,-35.68 -73.86,-68.54 l -0.92,-1.34 -1.43,-2.1 c -0.75,-1.13 -1.5,-2.25 -2.24,-3.4 -1.1,-1.69 -2.05,-3.18 -2.88,-4.51 l -0.2,-0.32 c -1.38,-2.24 -2.34,-3.83 -2.73,-4.51 l -0.48,-0.82 c -0.99,-1.65 -1.96,-3.33 -2.92,-5.04 -0.58,-0.99 -1.12,-1.99 -1.68,-2.98 l -0.14,-0.25 -0.19,-0.34 c -0.93,-1.62 -1.84,-3.25 -2.73,-4.89 l -0.99,-1.85 c -5.08,-9.56 -9.55,-19.6 -13.2,-30.06 -4.29,-11.52 -7.37,-23.18 -8.89,-34.73 -0.54,-2.79 -1.02,-5.83 -1.35,-8.53 -0.16,-1.03 -0.37,-2.6 -0.59,-4.63 -0.22,-1.82 -0.37,-3.39 -0.5,-5.24 l -0.02,-0.15 -0.03,-0.42 c -0.26,-3.41 -0.49,-7.37 -0.57,-11.85 v 0.27 -0.3 -0.07 0.04 -0.09 0.05 -0.11 c 0,-1.75 0.01,-3.74 0.06,-5.76 l 0.01,-0.19 c 0.01,-1.05 0.05,-2.09 0.09,-3.12 l 0.01,-0.33 0.01,-0.14 c 0.05,-1.06 0.11,-2.08 0.18,-3.02 0.13,-1.74 0.32,-3.73 0.55,-5.75 l 0.01,-0.26 0.08,-0.68 0.03,-0.23 c 0.1,-0.94 0.23,-1.93 0.39,-2.95 l 0.16,-1.09 0.33,-1.94 0.12,-0.7 0.03,-0.15 c 0.21,-1.16 0.43,-2.29 0.63,-3.3 l 0.2,-0.88 0.06,-0.32 0.1,-0.41 c 0.93,-4.2 1.99,-7.88 3.07,-11.05 l 0.47,-1.38 -0.06,0.18 0.07,-0.2 c 0.43,-1.19 0.89,-2.41 1.39,-3.65 l 0.22,-0.6 0.38,-0.81 0.01,-0.03 0.44,-1.13 0.29,-0.6 c 0.41,-0.93 0.81,-1.83 1.2,-2.65 l 0.19,-0.37 0.27,-0.59 c 0.62,-1.31 1.41,-2.76 2.24,-4.22 l 1.19,-2.03 0.75,-1.25 c 3.86,-6.29 8.45,-11.78 13.76,-16.46 8.78,-7.92 19.25,-13.36 30.98,-16.05 0.81,-0.19 1.71,-0.39 2.71,-0.58 13.39,-2.75 27.25,-1.8 40.98,1.96 1.94,0.32 3.89,0.79 5.84,1.29 3.38,-0.6 6.28,0.28 8.24,2.53 1.73,1.98 2.74,4.95 2.76,8.79 0.03,10.35 -7.25,22.95 -16.26,28.15 -2.34,1.35 -4.54,2.04 -6.56,2.19 -2.41,0.18 -4.48,-0.54 -6.12,-1.92 l -0.6,-0.15 -1.19,-0.26 c -1.23,-0.29 -2.44,-0.53 -3.63,-0.72 l -0.04,-0.01 -0.52,-0.08 -1.81,-0.25 c -5.92,-0.64 -11.51,-0.21 -16.58,1.42 l -0.7,0.28 c -1.55,0.53 -3.07,1.14 -4.51,1.91 -5.63,3.44 -9.59,8.36 -12.41,13.8 l -0.76,1.58 -0.78,1.74 -0.63,1.58 c -2.28,5.95 -3.45,12.18 -4.05,17.72 -0.13,4.27 -0.76,8.54 -0.71,12.82 0.73,16.86 3.95,33.04 8.9,48.23 0.93,2.66 1.95,5.47 2.97,8.2 2.75,7.08 5.99,14.49 9.8,22.03 l 0.13,0.25 c 0.71,1.4 1.46,2.79 2.2,4.19 l 4.11,7.32 5.2,8.36 0.28,0.45 2.71,3.95 c 2.17,3.12 4.38,6.18 6.67,9.14 l 1.83,2.35 c 11.93,15.03 25.2,27.76 38.53,37.02 l 1.5,1.01 c 1.28,0.87 2.56,1.7 3.84,2.5 1.03,0.64 2.08,1.25 3.12,1.86 l 2.51,1.43 c 6.97,3.7 13.52,6.35 19.61,7.94 l 2.29,0.52 c 1.09,0.24 2.16,0.44 3.22,0.61 l 0.34,0.05 c 1.14,0.17 2.28,0.32 3.4,0.4 l 1.24,0.07 c 6.83,0.33 13.21,-0.86 18.86,-3.85 9.35,-5.95 15.31,-16.81 17.85,-30.93 l 45.47,-26.2 c 0.49,8.72 -0.1,16.66 -2.03,23.41"
         style="fill:#c6d7d9;fill-opacity:1;fill-rule:nonzero;stroke:none"
         id="path194" />
      <path
         d="m 4217.13,837.398 c -9.06,0 -18.12,2.352 -26.23,7.032 l -976.51,563.79 c 3.69,9.66 7.12,19.58 10.28,29.74 l 928.27,-528.98 c 1.47,-0.839 3.01,-1.269 4.53,-1.82 v 0 0 l 0.47,-0.328 c 12.53,-5.32 25.19,-7.723 37.56,-7.723 30.5,0 59.15,14.621 79.27,36.391 l 31.71,-18.23 c 14.03,-8.071 14.05,-28.29 0.04,-36.372 l -63.16,-36.468 c -8.12,-4.68 -17.17,-7.032 -26.23,-7.032"
         style="fill:#95d6df;fill-opacity:1;fill-rule:nonzero;stroke:none"
         id="path196" />
      <path
         d="m 2917.28,4247.54 -0.08,0.08 c 8.57,30.11 69.7,87.35 130.52,86.15 2.2,0.02 13.14,-1.1 17.09,-3.35 L 4246.37,3658.2 c 20.09,-11.43 35.59,-28.6 45.41,-48.66 7.45,-15.22 11.72,-32.05 11.72,-49.58 V 1004.17 c 0,-65.111 -75.07,-127.24 -145.56,-97.338 l -0.47,0.328 c -1.52,0.551 -3.06,0.981 -4.53,1.82 l -1181.6,673.34 c -35.29,20.11 -57.07,57.59 -57.07,98.2 v 2554.71 c 0,4.54 1.22,8.62 3.01,12.31"
         style="fill:#546cb6;fill-opacity:1;fill-rule:nonzero;stroke:none"
         id="path198" />
      <path
         d="m 4138.67,3289.82 c 0,20.32 -10.91,39.07 -28.57,49.12 L 3013.02,3963.1 c -18.84,10.72 -42.24,-2.88 -42.24,-24.55 V 1877.66 c 0,-20.26 10.95,-39.08 28.56,-49.12 l 1097.09,-625.17 c 18.83,-10.73 42.24,2.87 42.24,24.55 v 2061.9"
         style="fill:#fabb69;fill-opacity:1;fill-rule:nonzero;stroke:none"
         id="path200" />
      <path
         d="M 4303.5,3559.96 V 1004.17 c 0,-65.111 -75.07,-127.24 -145.56,-97.338 l -0.47,0.328 c 17.86,-6.48 37.72,6.399 37.72,26.379 V 3489.32 c 0,22.65 -6.98,44.19 -19.09,62.42 l 115.68,57.8 c 7.45,-15.22 11.72,-32.05 11.72,-49.58"
         style="fill:#444f97;fill-opacity:1;fill-rule:nonzero;stroke:none"
         id="path202" />
      <path
         d="m 4176.1,3551.74 c -9.62,14.48 -22.41,26.92 -38.04,35.82 L 2956.5,4259.79 c -4.48,2.55 -9.2,3.71 -13.8,3.71 -10.67,0 -20.67,-6.26 -25.42,-15.96 v 0 0 l -0.08,0.08 c 8.48,29.8 68.45,86.17 128.63,86.17 0.64,0 1.26,-0.01 1.89,-0.02 0.02,0 0.04,0 0.06,0 2.33,0 13.11,-1.12 17.03,-3.35 L 4246.37,3658.2 c 20.09,-11.43 35.59,-28.6 45.41,-48.66 l -115.68,-57.8 v 0"
         style="fill:#778bc7;fill-opacity:1;fill-rule:nonzero;stroke:none"
         id="path204" />
      <path
         d="m 3409.1,3837.74 c -8.29,4.79 -15.17,1.08 -15.2,-8.45 -0.02,-9.54 6.8,-21.37 15.1,-26.17 l 231.82,-133.83 c 8.3,-4.79 15,-0.77 15.02,8.77 0.03,9.53 -6.62,21.06 -14.92,25.85 l -231.82,133.83"
         style="fill:#353373;fill-opacity:1;fill-rule:nonzero;stroke:none"
         id="path206" />
      <path
         d="m 3700.45,3669.54 c -8.3,4.79 -14.99,0.97 -15.02,-8.56 -0.03,-9.54 6.62,-21.27 14.92,-26.06 8.3,-4.79 15.18,-0.88 15.21,8.66 0.03,9.54 -6.81,21.16 -15.11,25.96"
         style="fill:#353373;fill-opacity:1;fill-rule:nonzero;stroke:none"
         id="path208" />
      <path
         d="m 3552.07,3857.21 c -16.58,9.57 -29.96,1.95 -30.01,-17.1 -0.06,-19.05 13.23,-42.49 29.82,-52.06 16.57,-9.57 30.31,-1.74 30.37,17.31 0.05,19.05 -13.6,42.28 -30.18,51.85"
         style="fill:#353373;fill-opacity:1;fill-rule:nonzero;stroke:none"
         id="path210" />
      <path
         d="m 3551.98,1451.14 c -33.77,19.5 -61.01,3.98 -61.12,-34.82 -0.12,-38.8 26.95,-86.54 60.72,-106.04 33.77,-19.5 61.76,-3.54 61.87,35.26 0.1,38.81 -27.7,86.11 -61.47,105.6"
         style="fill:#353373;fill-opacity:1;fill-rule:nonzero;stroke:none"
         id="path212" />
      <path
         d="m 3306.04,3437.43 c 0,4.2 -2.25,8.08 -5.9,10.16 l -227.01,129.16 c -3.91,2.21 -8.75,-0.6 -8.75,-5.08 v -257.34 c 0,-4.19 2.27,-8.08 5.91,-10.16 L 3297.3,3174.8 c 3.9,-2.22 8.74,0.6 8.74,5.08 v 257.55"
         style="fill:#ffffff;fill-opacity:1;fill-rule:nonzero;stroke:none"
         id="path214" />
      <path
         d="m 4030.01,3025.34 -636.11,367.25 v -40.14 l 636.11,-367.25 v 40.14"
         style="fill:#f68b45;fill-opacity:1;fill-rule:nonzero;stroke:none"
         id="path216" />
      <path
         d="M 4030.01,2951.89 3393.9,3319.15 V 3279 l 636.11,-367.25 v 40.14"
         style="fill:#f68b45;fill-opacity:1;fill-rule:nonzero;stroke:none"
         id="path218" />
      <path
         d="M 4030.01,2878.45 3393.9,3245.7 v -40.14 l 636.11,-367.25 v 40.14"
         style="fill:#f68b45;fill-opacity:1;fill-rule:nonzero;stroke:none"
         id="path220" />
      <path
         d="m 3393.9,3172.26 v -40.15 l 221.64,-127.96 v 40.15 l -221.64,127.96"
         style="fill:#f68b45;fill-opacity:1;fill-rule:nonzero;stroke:none"
         id="path222" />
      <path
         d="m 3306.04,3022.93 c 0,4.21 -2.25,8.09 -5.9,10.17 l -227.01,129.15 c -3.91,2.22 -8.75,-0.59 -8.75,-5.08 v -257.34 c 0,-4.19 2.27,-8.08 5.91,-10.16 l 227.01,-129.36 c 3.9,-2.22 8.74,0.59 8.74,5.08 v 257.54"
         style="fill:#ffffff;fill-opacity:1;fill-rule:nonzero;stroke:none"
         id="path224" />
      <path
         d="M 4030.01,2610.84 3393.9,2978.1 v -40.15 l 636.11,-367.25 v 40.14"
         style="fill:#f68b45;fill-opacity:1;fill-rule:nonzero;stroke:none"
         id="path226" />
      <path
         d="m 4030.01,2537.4 -636.11,367.25 v -40.14 l 636.11,-367.25 v 40.14"
         style="fill:#f68b45;fill-opacity:1;fill-rule:nonzero;stroke:none"
         id="path228" />
      <path
         d="m 3393.9,2831.21 v -40.15 l 423.53,-244.52 v 40.14 l -423.53,244.53"
         style="fill:#f68b45;fill-opacity:1;fill-rule:nonzero;stroke:none"
         id="path230" />
      <path
         d="m 3306.04,2608.44 c 0,4.2 -2.25,8.08 -5.9,10.16 l -227.01,129.15 c -3.91,2.22 -8.75,-0.59 -8.75,-5.07 v -257.34 c 0,-4.19 2.27,-8.08 5.91,-10.16 l 227.01,-129.37 c 3.9,-2.22 8.74,0.6 8.74,5.09 v 257.54"
         style="fill:#ffffff;fill-opacity:1;fill-rule:nonzero;stroke:none"
         id="path232" />
      <path
         d="M 4030.01,2196.35 3393.9,2563.6 v -40.14 l 636.11,-367.26 v 40.15"
         style="fill:#f68b45;fill-opacity:1;fill-rule:nonzero;stroke:none"
         id="path234" />
      <path
         d="m 4030.01,2122.9 -636.11,367.26 v -40.15 l 636.11,-367.26 v 40.15"
         style="fill:#f68b45;fill-opacity:1;fill-rule:nonzero;stroke:none"
         id="path236" />
      <path
         d="m 3393.9,2416.72 v -40.15 l 100.13,-57.81 v 40.15 l -100.13,57.81"
         style="fill:#f68b45;fill-opacity:1;fill-rule:nonzero;stroke:none"
         id="path238" />
      <path
         d="m 3306.04,2193.95 c 0,4.19 -2.25,8.08 -5.9,10.16 l -227.01,129.15 c -3.91,2.22 -8.75,-0.59 -8.75,-5.08 v -257.34 c 0,-4.19 2.27,-8.08 5.91,-10.16 l 227.01,-129.36 c 3.9,-2.22 8.74,0.59 8.74,5.08 v 257.55"
         style="fill:#ffffff;fill-opacity:1;fill-rule:nonzero;stroke:none"
         id="path240" />
      <path
         d="m 4030.01,1781.86 -636.11,367.25 v -40.15 l 636.11,-367.25 v 40.15"
         style="fill:#f68b45;fill-opacity:1;fill-rule:nonzero;stroke:none"
         id="path242" />
      <path
         d="m 4030.01,1708.41 -636.11,367.25 v -40.14 l 636.11,-367.26 v 40.15"
         style="fill:#f68b45;fill-opacity:1;fill-rule:nonzero;stroke:none"
         id="path244" />
      <path
         d="m 4030.01,1634.96 -636.11,367.26 v -40.15 l 636.11,-367.26 v 40.15"
         style="fill:#f68b45;fill-opacity:1;fill-rule:nonzero;stroke:none"
         id="path246" />
      <path
         d="m 3393.9,1930.55 v -40.15 l 400.04,-230.96 v 40.14 l -400.04,230.97"
         style="fill:#f68b45;fill-opacity:1;fill-rule:nonzero;stroke:none"
         id="path248" />
      <path
         d="m 3261.75,3420.84 20.96,-36.31 -127.9,-72.88 -67.1,116.23 21.11,12.02 46.13,-79.91 106.8,60.85"
         style="fill:#f1494b;fill-opacity:1;fill-rule:nonzero;stroke:none"
         id="path250" />
      <path
         d="m 3261.75,3006.35 20.96,-36.32 -127.9,-72.88 -67.1,116.23 21.11,12.03 46.13,-79.92 106.8,60.86"
         style="fill:#f1494b;fill-opacity:1;fill-rule:nonzero;stroke:none"
         id="path252" />
      <path
         d="m 3261.75,2591.86 20.96,-36.32 -127.9,-72.88 -67.1,116.23 21.11,12.02 46.13,-79.91 106.8,60.86"
         style="fill:#f1494b;fill-opacity:1;fill-rule:nonzero;stroke:none"
         id="path254" />
      <path
         d="m 3261.75,2177.36 20.96,-36.32 -127.9,-72.88 -67.1,116.23 21.11,12.03 46.13,-79.92 106.8,60.86"
         style="fill:#f1494b;fill-opacity:1;fill-rule:nonzero;stroke:none"
         id="path256" />
      <path
         d="m 2925.31,740.41 c -9.06,0 -18.11,2.34 -26.23,7.02 l -1026.22,589.76 c -13.99,8.08 -13.99,28.27 0,36.35 l 112.78,67.8 c 101.66,-145.91 225.14,-264.35 355.55,-339.65 98.37,-56.79 193.82,-85.59 283.69,-85.59 62.09,0 118.14,13.71 166.87,39.27 l 0.79,0.4 30.21,18.17 v 0 l 134.39,80.44 313.14,-178.989 c 14.03,-8.059 14.05,-28.282 0.04,-36.371 L 2951.54,747.43 c -8.11,-4.68 -17.17,-7.02 -26.23,-7.02 m -300.57,335.76 c -76.33,0 -162.44,24.91 -253.53,77.51 -125.09,72.22 -240.55,185.63 -333.96,318.69 l 80.19,48.21 c 93.36,-132.9 208.72,-246.16 333.69,-318.3 91.13,-52.62 177.31,-77.55 253.68,-77.55 39.83,0 76.99,6.78 110.8,19.95 -51.32,-44.81 -116.44,-68.51 -190.87,-68.51"
         style="fill:#95d6df;fill-opacity:1;fill-rule:nonzero;stroke:none"
         id="path258" />
      <path
         d="m 2836.38,1305.41 c -16.68,2.33 -38.5,-6.51 -48.77,-19.76 -5.12,-6.61 -6.39,-13.06 -4.28,-18.16 l 119.3,-294.4 c 2.1,-5.098 7.57,-8.828 15.91,-9.988 16.65,-2.332 38.46,6.507 48.71,19.726 5.13,6.621 6.4,13.094 4.31,18.192 l -119.3,294.4 c -2.09,5.1 -7.55,8.84 -15.88,9.99"
         style="fill:#353373;fill-opacity:1;fill-rule:nonzero;stroke:none"
         id="path260" />
      <path
         d="m 2161.06,1206.91 c -16.68,-2.32 -38.5,6.52 -48.77,19.76 -5.12,6.61 -6.39,13.08 -4.28,18.16 l 119.29,294.41 c 2.11,5.1 7.58,8.84 15.92,10 16.65,2.32 38.46,-6.53 48.71,-19.75 5.14,-6.62 6.4,-13.08 4.31,-18.18 l -119.3,-294.41 c -2.1,-5.09 -7.56,-8.82 -15.88,-9.99"
         style="fill:#353373;fill-opacity:1;fill-rule:nonzero;stroke:none"
         id="path262" />
      <path
         d="m 2374.89,2453.1 c -91.61,52.89 -178.12,77.61 -254.77,77.37 -184.67,-0.59 -311.77,-147.04 -312.49,-400.64 -1.02,-358.79 251.27,-795.85 563.58,-976.15 226.49,-130.77 422.23,-90.4 513.11,78.5 34.41,63.95 53.86,146.23 54.15,244.76 1.01,358.86 -251.33,795.88 -563.58,976.16"
         style="fill:#444f97;fill-opacity:1;fill-rule:nonzero;stroke:none"
         id="path264" />
      <path
         d="m 2454.81,2501.69 c -312.3,180.31 -566.24,35.6 -567.26,-323.26 -1.02,-358.8 251.28,-795.85 563.58,-976.15 312.25,-180.28 566.24,-35.54 567.26,323.26 1.01,358.86 -251.33,795.88 -563.58,976.15"
         style="fill:#ffffff;fill-opacity:1;fill-rule:nonzero;stroke:none"
         id="path266" />
      <path
         d="m 2468.72,2399.57 -0.28,-97.9 -28.36,16.38 0.27,97.89 28.37,-16.37"
         style="fill:#444f97;fill-opacity:1;fill-rule:nonzero;stroke:none"
         id="path268" />
      <path
         d="m 2224.83,2473.96 42.3,-109.31 -24.63,-2.17 -42.3,109.31 24.63,2.17"
         style="fill:#444f97;fill-opacity:1;fill-rule:nonzero;stroke:none"
         id="path270" />
      <path
         d="m 2042.06,2381.67 73.61,-91.46 -14.32,-20.03 -73.61,91.46 14.32,20.03"
         style="fill:#444f97;fill-opacity:1;fill-rule:nonzero;stroke:none"
         id="path272" />
      <path
         d="m 2054.53,2098.33 -0.1,-32.59 -85.19,49.19 0.09,32.59 85.2,-49.19"
         style="fill:#444f97;fill-opacity:1;fill-rule:nonzero;stroke:none"
         id="path274" />
      <path
         d="m 2100.13,1840.54 14.16,-36.47 -73.89,-6.36 -14.15,36.46 73.88,6.37"
         style="fill:#444f97;fill-opacity:1;fill-rule:nonzero;stroke:none"
         id="path276" />
      <path
         d="m 2240.3,1585.75 24.53,-30.49 -42.77,-60.18 -24.55,30.49 42.79,60.18"
         style="fill:#444f97;fill-opacity:1;fill-rule:nonzero;stroke:none"
         id="path278" />
      <path
         d="m 2465.84,1385.9 -0.28,-97.82 -28.36,16.36 0.28,97.84 28.36,-16.38"
         style="fill:#444f97;fill-opacity:1;fill-rule:nonzero;stroke:none"
         id="path280" />
      <path
         d="m 2663.36,1341.49 42.36,-109.33 -24.63,-2.1 -42.36,109.33 24.63,2.1"
         style="fill:#444f97;fill-opacity:1;fill-rule:nonzero;stroke:none"
         id="path282" />
      <path
         d="m 2804.51,1433.87 73.62,-91.53 -14.26,-20.06 -73.62,91.53 14.26,20.06"
         style="fill:#444f97;fill-opacity:1;fill-rule:nonzero;stroke:none"
         id="path284" />
      <path
         d="m 2936.62,1589.05 -0.09,-32.59 -85.13,49.16 0.08,32.58 85.14,-49.15"
         style="fill:#444f97;fill-opacity:1;fill-rule:nonzero;stroke:none"
         id="path286" />
      <path
         d="m 2865.52,1906.24 14.1,-36.44 -73.89,-6.29 -14.1,36.43 73.89,6.3"
         style="fill:#444f97;fill-opacity:1;fill-rule:nonzero;stroke:none"
         id="path288" />
      <path
         d="m 2683.87,2208.94 24.53,-30.56 -42.83,-60.15 -24.54,30.55 42.84,60.16"
         style="fill:#444f97;fill-opacity:1;fill-rule:nonzero;stroke:none"
         id="path290" />
      <path
         d="m 2471.2,1789.43 163.02,-395.84 3.66,-42.44 -29.73,38.77 -162.96,395.81 c 10.2,-2.55 19.14,-1.15 26.01,3.7"
         style="fill:#444f97;fill-opacity:1;fill-rule:nonzero;stroke:none"
         id="path292" />
      <path
         d="m 2671.22,1835.53 35.42,-24.54 -24.94,-14.97 -196.58,31.19 c 0.06,-1.29 0.16,-2.68 0.16,-4 -0.01,-2.08 -0.12,-4.09 -0.29,-6 l -0.34,-2.33 c -0.11,-1.07 -0.28,-2.17 -0.45,-3.15 -0.22,-1.01 -0.44,-1.94 -0.72,-2.92 l -0.5,-2.11 c -0.33,-1.07 -0.72,-2.04 -1.16,-3.05 l -0.5,-1.35 c -0.49,-1.1 -1.04,-2.16 -1.59,-3.17 l -0.45,-0.82 c -0.66,-1.06 -1.32,-2.07 -2.03,-3.04 -1.16,-1.35 -1.99,-2.32 -2.87,-3.2 -1.09,-1.06 -2.14,-1.86 -3.18,-2.64 -6.87,-4.85 -15.81,-6.25 -26.01,-3.7 -2.19,0.58 -4.38,1.34 -6.63,2.26 l -1.09,0.44 c -2.36,0.98 -4.71,2.09 -7.12,3.47 -30.28,17.49 -54.68,59.81 -54.57,94.54 0.09,34.78 24.64,48.77 54.92,31.29 2.08,-1.2 4.16,-2.52 6.19,-4.01 l 1.81,-1.36 c 1.47,-1.1 2.9,-2.17 4.26,-3.34 l 1.92,-1.68 c 1.37,-1.23 2.79,-2.55 4.1,-3.81 l 1.59,-1.61 c 1.58,-1.61 3.11,-3.31 4.64,-5.07 8.1,-9.47 14.48,-19.52 19.38,-30.1 l 196.63,-31.22"
         style="fill:#f1494b;fill-opacity:1;fill-rule:nonzero;stroke:none"
         id="path294" />
      <path
         d="m 2448.94,1838.52 c 0.04,14.78 -10.38,32.84 -23.25,40.27 -5.77,3.33 -10.99,3.83 -15.08,2.19 l -0.06,0.11 -0.61,-0.37 -1.54,-0.91 -35.35,-21.01 0.01,-0.03 c 4.21,2.24 9.9,1.85 16.18,-1.78 12.87,-7.43 23.29,-25.49 23.26,-40.27 -0.03,-7.08 -2.49,-12.07 -6.41,-14.6 l 0.02,-0.05 35.67,21.35 0.55,0.33 0.44,0.26 -0.04,0.06 c 3.8,2.58 6.19,7.49 6.21,14.45"
         style="fill:#444f97;fill-opacity:1;fill-rule:nonzero;stroke:none"
         id="path296" />
      <path
         d="m 2412.5,1816.72 c 0.03,14.78 -10.39,32.84 -23.26,40.27 -6.28,3.63 -11.97,4.02 -16.18,1.78 -4.41,-2.33 -7.19,-7.55 -7.22,-15.12 -0.04,-14.78 10.39,-32.84 23.25,-40.26 6.71,-3.88 12.73,-4.03 17,-1.27 3.92,2.53 6.38,7.52 6.41,14.6"
         style="fill:#526bb5;fill-opacity:1;fill-rule:nonzero;stroke:none"
         id="path298" />
      <path
         d="m 3079.58,2214.32 c -111.63,193.34 -261.23,350.69 -421.24,443.07 -98.4,56.81 -193.86,85.62 -283.75,85.62 -65.87,0 -124.94,-15.45 -175.68,-44.12 l -0.09,0.05 -4.28,-2.57 c -3.17,-1.86 -6.34,-3.73 -9.45,-5.7 l -246.92,-148.31 c 52.33,31.4 113.92,48.34 182.98,48.34 89.89,0 185.36,-28.8 283.75,-85.62 160,-92.37 309.61,-249.73 421.24,-443.07 111.66,-193.42 172.87,-401.25 172.36,-585.23 -0.53,-186.15 -65.67,-328.4 -175.75,-402.84 l 239.07,143.09 c 1.49,0.9 2.99,1.77 4.48,2.7 l 0.68,0.41 v 0.04 c 115.68,72.62 184.41,217.6 184.95,408.9 0.52,183.99 -60.69,391.83 -172.35,585.24"
         style="fill:#444f97;fill-opacity:1;fill-rule:nonzero;stroke:none"
         id="path300" />
      <path
         d="m 2371.21,1153.68 c -312.31,180.3 -564.6,617.35 -563.58,976.15 0.72,253.6 127.82,400.05 312.49,400.64 76.65,0.24 163.16,-24.48 254.77,-77.37 312.25,-180.28 564.59,-617.3 563.58,-976.16 -0.29,-98.53 -19.74,-180.81 -54.15,-244.76 -90.88,-168.9 -286.62,-209.27 -513.11,-78.5 m 454.93,908.33 c -111.63,193.34 -261.24,350.7 -421.24,443.07 -98.39,56.82 -193.86,85.62 -283.75,85.62 -69.06,0 -130.65,-16.94 -182.98,-48.34 l -5.27,-3.18 -0.81,-0.53 c -115.39,-72.71 -183.95,-217.58 -184.49,-408.64 -0.52,-183.97 60.69,-391.8 172.34,-585.2 111.62,-193.35 261.23,-350.72 421.25,-443.12 98.37,-56.79 193.82,-85.59 283.69,-85.59 62.09,0 118.14,13.71 166.87,39.27 l 0.79,0.4 30.21,18.17 c 110.08,74.44 175.22,216.69 175.75,402.84 0.51,183.98 -60.7,391.81 -172.36,585.23"
         style="fill:#526bb5;fill-opacity:1;fill-rule:nonzero;stroke:none"
         id="path302" />
      <path
         d="m 3251.93,1628.16 c 0,0.03 0,0.07 0,0.1 0,-0.03 0,-0.07 0,-0.1"
         style="fill:#405591;fill-opacity:1;fill-rule:nonzero;stroke:none"
         id="path304" />
      <path
         d="m 2970.28,1282.66 c 18.16,57.05 27.93,121.92 28.21,193.24 0,0.03 0,0.06 0,0.09 0,0.26 0,0.53 0.01,0.79 v 0 0 c 0,0.72 0,1.44 0,2.15 0,25.57 -1.18,51.58 -3.52,77.95 l 253.86,146.57 c 2.07,-25.15 3.16,-49.97 3.09,-74.37 v 0 0 c 0,-0.27 0,-0.54 0,-0.82 0,-0.03 0,-0.07 0,-0.1 -0.3,-74.5 -11.08,-141.82 -30.83,-200.69 l -250.82,-144.81"
         style="fill:#353f75;fill-opacity:1;fill-rule:nonzero;stroke:none"
         id="path306" />
      <path
         d="m 2970.13,1282.57 c 18.19,57.1 28.08,121.93 28.36,193.33 -0.28,-71.32 -10.05,-136.19 -28.21,-193.24 l -0.15,-0.09 m 28.36,193.42 c 0,0.26 0,0.52 0.01,0.79 -0.01,-0.26 -0.01,-0.53 -0.01,-0.79 m 0.01,0.79 c 0.06,26.21 -1.25,52.96 -3.65,80.03 l 0.13,0.07 c 2.34,-26.37 3.52,-52.38 3.52,-77.95 0,-0.71 0,-1.43 0,-2.15"
         style="fill:#3f5490;fill-opacity:1;fill-rule:nonzero;stroke:none"
         id="path308" />
      <path
         d="m 2645.74,2308.52 c -65.98,71.41 -137.42,132 -211.47,178.81 l 258.29,149.12 c 73.64,-47.22 144.56,-108.1 210.08,-179.6 l -256.9,-148.33"
         style="fill:#6a73ae;fill-opacity:1;fill-rule:nonzero;stroke:none"
         id="path310" />
      <path
         d="m 2645.61,2308.45 c -65.97,71.38 -137.31,132.08 -211.35,178.87 l 0.01,0.01 c 74.05,-46.81 145.49,-107.4 211.47,-178.81 l -0.13,-0.07"
         style="fill:#768ac6;fill-opacity:1;fill-rule:nonzero;stroke:none"
         id="path312" />
      <path
         d="m 2772.49,2147.89 c -16.87,25 -34.39,49.26 -52.47,72.66 l 256.5,148.08 c 17.99,-23.47 35.41,-47.75 52.2,-72.81 l -256.23,-147.93"
         style="fill:#6a73ae;fill-opacity:1;fill-rule:nonzero;stroke:none"
         id="path314" />
      <path
         d="m 2772.36,2147.81 c -16.87,25.01 -34.37,49.26 -52.46,72.67 l 0.12,0.07 c 18.08,-23.4 35.6,-47.66 52.47,-72.66 l -0.13,-0.08"
         style="fill:#768ac6;fill-opacity:1;fill-rule:nonzero;stroke:none"
         id="path316" />
      <path
         d="m 1614.02,1006.4 c -7.59,0 -15.17,1.96 -21.96,5.88 l -919.49,532.01 -51.175,81.04 c -4.579,7.26 0.968,16.13 8.773,16.13 0.969,0 1.973,-0.14 2.996,-0.43 l 138.203,-39.7 917.443,-528.08 c 11.74,-6.75 11.75,-23.67 0.03,-30.44 l -52.87,-30.53 c -6.79,-3.92 -14.37,-5.88 -21.95,-5.88"
         style="fill:#95d6df;fill-opacity:1;fill-rule:nonzero;stroke:none"
         id="path318" />
      <path
         d="m 654.605,1698.34 -29.402,5.14 c -5.363,0.94 -9.246,-5 -6.226,-9.53 l 20.421,-30.14 c -1.91,14.7 3.165,29.46 15.207,34.53"
         style="fill:#444f97;fill-opacity:1;fill-rule:nonzero;stroke:none"
         id="path320" />
      <path
         d="m 755.543,1680.67 -100.938,17.67 c -12.042,-5.07 -17.117,-19.83 -15.207,-34.53 l 56.067,-82.7 60.078,99.56"
         style="fill:#f5ac97;fill-opacity:1;fill-rule:nonzero;stroke:none"
         id="path322" />
      <path
         d="m 1648.33,1144.02 c 24.12,13.93 43.71,2.77 43.79,-24.96 0.08,-27.68 -19.39,-61.42 -43.51,-75.35 -24.1,-13.92 -43.71,-2.74 -43.79,24.95 -0.08,27.73 19.4,61.45 43.51,75.36"
         style="fill:#f5ac97;fill-opacity:1;fill-rule:nonzero;stroke:none"
         id="path324" />
      <path
         d="m 1111.43,1477.14 -71.6,41.61 -273.646,159.03 -0.243,0.13 -2.191,1.07 -0.43,0.16 -0.742,0.25 -1.129,0.4 -1.269,0.3 -0.766,0.17 -0.414,0.1 -2.633,0.31 h -0.176 -0.648 l -2.066,0.02 -0.727,-0.07 -1.312,-0.13 -1.211,-0.12 -1.094,-0.24 -1.793,-0.38 -0.957,-0.2 -2.242,-0.69 -0.219,-0.07 c -0.887,-0.3 -1.777,-0.65 -2.688,-1.02 l -1.082,-0.49 -1.031,-0.47 c -1.324,-0.63 -2.656,-1.3 -4.004,-2.08 -1.41,-0.81 -2.793,-1.71 -4.164,-2.65 l -1.32,-0.96 c -0.922,-0.66 -1.84,-1.34 -2.746,-2.07 l -1.489,-1.23 -2.468,-2.16 -1.481,-1.37 -0.922,-0.86 -0.933,-1 c -0.985,-1 -1.953,-2.03 -2.91,-3.09 l -0.926,-1 -0.731,-0.89 -1.691,-2.06 -1.125,-1.36 -0.856,-1.16 -1.203,-1.63 -0.843,-1.14 -1.321,-1.98 -0.847,-1.26 -0.36,-0.54 c -0.773,-1.21 -1.527,-2.44 -2.254,-3.68 l -0.132,-0.26 -0.418,-0.74 c -0.504,-0.89 -1.012,-1.78 -1.497,-2.68 l -0.64,-1.26 -0.656,-1.3 -0.582,-1.16 c -0.497,-1.01 -0.954,-2.04 -1.407,-3.07 l -0.254,-0.56 -0.074,-0.15 c -0.562,-1.3 -1.097,-2.6 -1.601,-3.91 l -0.258,-0.72 -0.516,-1.44 -0.699,-1.96 -0.473,-1.54 -0.55,-1.8 -0.336,-1.12 -0.493,-1.99 -0.546,-2.23 -0.192,-0.79 -0.273,-1.6 c -0.227,-1.16 -0.434,-2.32 -0.602,-3.48 l -0.164,-0.97 -0.211,-2.17 -0.152,-1.54 c -0.125,-1.63 -0.199,-3.24 -0.196,-4.83 0.04,-13.76 4.899,-23.44 12.735,-28 l 275.734,-160.24 67.426,-39.18 570.05,-331.28 c -7.83,4.55 -12.69,14.23 -12.73,27.99 -0.01,1.59 0.07,3.21 0.19,4.84 l 0.16,1.54 c 0.09,1.03 0.22,2.09 0.37,3.13 0.17,1.17 0.38,2.33 0.6,3.49 l 0.47,2.38 0.55,2.24 c 0.25,1.03 0.52,2.07 0.82,3.1 l 0.56,1.81 c 0.36,1.16 0.75,2.34 1.17,3.5 l 0.51,1.43 c 0.6,1.6 1.24,3.21 1.93,4.8 l 0.26,0.54 c 0.62,1.43 1.29,2.84 1.98,4.23 l 0.66,1.3 c 0.69,1.33 1.4,2.65 2.14,3.95 l 0.42,0.74 c 0.87,1.52 1.79,3.01 2.74,4.47 l 0.85,1.27 c 0.7,1.05 1.43,2.09 2.16,3.12 l 1.21,1.63 1.97,2.52 1.7,2.07 1.66,1.87 c 0.95,1.07 1.92,2.09 2.9,3.1 l 1.87,1.86 1.47,1.37 2.47,2.16 1.49,1.23 c 0.91,0.72 1.82,1.41 2.74,2.07 l 1.33,0.96 c 1.37,0.93 2.75,1.83 4.16,2.64 1.35,0.78 2.68,1.46 4,2.08 l 1.03,0.47 c 1.28,0.57 2.54,1.1 3.77,1.52 l 0.23,0.06 c 1.08,0.37 2.14,0.64 3.19,0.9 l 1.79,0.38 2.31,0.36 1.31,0.13 c 0.95,0.06 1.88,0.08 2.79,0.06 l 0.65,-0.01 c 1.11,-0.06 2.18,-0.2 3.23,-0.41 l 0.76,-0.18 2.4,-0.69 0.74,-0.25 c 0.99,-0.39 1.95,-0.83 2.86,-1.36 l -567.96,330.06"
         style="fill:#546cb6;fill-opacity:1;fill-rule:nonzero;stroke:none"
         id="path326" />
      <path
         d="m 1648.43,1108.28 c 6.93,4.01 12.56,0.79 12.58,-7.17 0.03,-7.96 -5.57,-17.64 -12.5,-21.65 -6.92,-4 -12.56,-0.79 -12.58,7.17 -0.03,7.96 5.57,17.66 12.5,21.65"
         style="fill:#444f97;fill-opacity:1;fill-rule:nonzero;stroke:none"
         id="path328" />
    </g>
  </g>
</svg>
